<svg width="200" height="200" viewBox="0 0 200 200" fill="none" xmlns="http://www.w3.org/2000/svg">
<path d="M18.0145 89.0487L11.1163 100.914H10.3487L8.12571 97.0781H4.04858L8.27524 104.432H13.1997L22.0817 89.0487H18.0145Z" fill="#FF9245"/>
<path d="M17.2269 104.432L15.5921 101.609L13.9473 104.432H17.2269Z" fill="#132645"/>
<path d="M15.1934 92.5566L17.227 89.0487H8.31511L4.04858 96.4024H8.12571L10.3487 92.5566H15.1934Z" fill="#132645"/>
<path d="M43.8785 100.298C43.8785 99.7153 43.6722 99.2697 43.2596 98.9612C42.847 98.6459 42.1043 98.3168 41.0316 97.9741C39.9588 97.6245 39.1095 97.2817 38.4837 96.9458C36.7783 96.0272 35.9256 94.7898 35.9256 93.2337C35.9256 92.4248 36.1525 91.705 36.6064 91.0743C37.0671 90.4368 37.7239 89.9398 38.5766 89.5833C39.4362 89.2268 40.3989 89.0486 41.4648 89.0486C42.5376 89.0486 43.4934 89.244 44.3324 89.6347C45.1714 90.0186 45.8212 90.5636 46.282 91.2697C46.7496 91.9758 46.9834 92.7778 46.9834 93.6759H43.8889C43.8889 92.9903 43.6722 92.4591 43.239 92.082C42.8058 91.6981 42.1972 91.5062 41.4132 91.5062C40.6568 91.5062 40.0688 91.6673 39.6494 91.9895C39.2299 92.3048 39.0201 92.723 39.0201 93.244C39.0201 93.7307 39.2643 94.1386 39.7525 94.4676C40.2476 94.7967 40.9731 95.1052 41.929 95.3931C43.6894 95.9209 44.9719 96.5756 45.7765 97.3571C46.5811 98.1386 46.9834 99.112 46.9834 100.277C46.9834 101.573 46.4917 102.591 45.5083 103.331C44.5249 104.065 43.2012 104.432 41.537 104.432C40.3817 104.432 39.3296 104.223 38.3806 103.804C37.4316 103.379 36.7061 102.8 36.2041 102.067C35.709 101.333 35.4614 100.483 35.4614 99.5165H38.5663C38.5663 101.169 39.5565 101.995 41.537 101.995C42.2728 101.995 42.847 101.847 43.2596 101.552C43.6722 101.251 43.8785 100.833 43.8785 100.298Z" fill="#132645"/>
<path d="M28.4735 98.8017H25.9308V104.433H22.739V89.0497H28.4948C30.3248 89.0497 31.7362 89.4547 32.7292 90.2647C33.7222 91.0748 34.2187 92.2194 34.2187 93.6986C34.2187 94.7481 33.9882 95.625 33.5272 96.3294C33.0732 97.0267 32.3817 97.5832 31.4525 97.9988L34.8039 104.285V104.433H31.3781L28.4735 98.8017ZM25.9308 96.2343H28.5055C29.307 96.2343 29.9276 96.0336 30.3673 95.6321C30.8071 95.2235 31.027 94.6635 31.027 93.9521C31.027 93.2266 30.8177 92.6561 30.3992 92.2405C29.9879 91.8249 29.3531 91.6171 28.4948 91.6171H25.9308V96.2343Z" fill="#132645"/>
<path d="M47.5413 103.507C47.5413 103.341 47.5817 103.187 47.6625 103.045C47.7442 102.902 47.8568 102.791 48.0002 102.709C48.1445 102.627 48.3001 102.586 48.467 102.586C48.6339 102.586 48.789 102.627 48.9325 102.709C49.0768 102.791 49.1893 102.902 49.2702 103.045C49.3519 103.187 49.3927 103.341 49.3927 103.507C49.3927 103.675 49.3514 103.831 49.2689 103.974C49.1863 104.116 49.0733 104.228 48.9299 104.309C48.7873 104.391 48.633 104.432 48.467 104.432C48.2992 104.432 48.1436 104.39 48.0002 104.308C47.8577 104.226 47.7455 104.114 47.6638 103.971C47.5821 103.829 47.5413 103.674 47.5413 103.507ZM49.2324 103.507C49.2324 103.371 49.1998 103.244 49.1346 103.127C49.0694 103.01 48.9772 102.916 48.8581 102.846C48.7391 102.775 48.6087 102.74 48.467 102.74C48.3288 102.74 48.2001 102.774 48.0811 102.841C47.9628 102.909 47.8698 103.002 47.802 103.12C47.7342 103.238 47.7003 103.368 47.7003 103.507C47.7003 103.647 47.7338 103.776 47.8007 103.895C47.8685 104.013 47.9615 104.107 48.0797 104.176C48.1988 104.244 48.3279 104.279 48.467 104.279C48.6061 104.279 48.7352 104.244 48.8542 104.174C48.9742 104.104 49.0672 104.01 49.1333 103.891C49.1993 103.773 49.2324 103.645 49.2324 103.507ZM48.2792 103.601V104.017H48.0824V102.968H48.4487C48.58 102.968 48.6834 102.997 48.7591 103.053C48.8347 103.109 48.8725 103.189 48.8725 103.293C48.8725 103.385 48.8234 103.456 48.7252 103.507C48.7782 103.533 48.8151 103.569 48.836 103.615C48.8577 103.66 48.8686 103.716 48.8686 103.784C48.8686 103.851 48.8699 103.899 48.8725 103.927C48.876 103.955 48.8821 103.978 48.8907 103.997V104.017H48.6886C48.6773 103.989 48.6717 103.909 48.6717 103.778C48.6717 103.715 48.6574 103.67 48.6287 103.643C48.6 103.615 48.5522 103.601 48.4852 103.601H48.2792ZM48.2792 103.436H48.4566C48.5209 103.436 48.5735 103.423 48.6143 103.396C48.6561 103.37 48.6769 103.336 48.6769 103.293C48.6769 103.235 48.6613 103.194 48.63 103.171C48.5996 103.146 48.5439 103.133 48.4631 103.132H48.2792V103.436Z" fill="#132645"/>
<path d="M61.791 100.05C61.791 100.335 61.8507 100.596 61.97 100.835C62.0984 101.064 62.2636 101.262 62.4655 101.427C62.6674 101.592 62.9014 101.72 63.1675 101.812C63.4337 101.904 63.709 101.95 63.9934 101.95C64.3789 101.95 64.7138 101.863 64.9983 101.688C65.2828 101.505 65.5443 101.266 65.7829 100.972L66.7189 101.688C66.0307 102.578 65.0671 103.023 63.8283 103.023C63.3144 103.023 62.8463 102.936 62.4242 102.762C62.0113 102.588 61.6579 102.349 61.3643 102.046C61.0798 101.734 60.8596 101.372 60.7036 100.959C60.5476 100.537 60.4696 100.082 60.4696 99.596C60.4696 99.1096 60.5521 98.6599 60.7173 98.247C60.8917 97.8248 61.1257 97.4624 61.4194 97.1595C61.7222 96.8475 62.0801 96.6043 62.493 96.43C62.906 96.2556 63.3557 96.1684 63.842 96.1684C64.4202 96.1684 64.9065 96.2694 65.3011 96.4713C65.7049 96.6732 66.0353 96.9393 66.2922 97.2696C66.5492 97.5908 66.7327 97.9579 66.8428 98.3709C66.9621 98.7746 67.0218 99.1876 67.0218 99.6097V100.05H61.791ZM65.7003 99.0591C65.6911 98.7838 65.6453 98.5315 65.5627 98.302C65.4893 98.0726 65.3745 97.8753 65.2185 97.7101C65.0625 97.5358 64.8652 97.4027 64.6266 97.3109C64.3972 97.21 64.1265 97.1595 63.8145 97.1595C63.5117 97.1595 63.2318 97.2192 62.9748 97.3385C62.727 97.4486 62.516 97.5954 62.3416 97.779C62.1673 97.9625 62.0296 98.169 61.9287 98.3984C61.8369 98.6186 61.791 98.8389 61.791 99.0591H65.7003ZM75.3313 95.2186C75.056 94.8607 74.7073 94.5854 74.2852 94.3927C73.863 94.2 73.4271 94.1037 72.9775 94.1037C72.4269 94.1037 71.9267 94.2092 71.4771 94.4203C71.0366 94.6221 70.6558 94.902 70.3346 95.2599C70.0226 95.6178 69.7794 96.04 69.605 96.5263C69.4306 97.0035 69.3435 97.5174 69.3435 98.068C69.3435 98.5819 69.4261 99.0683 69.5912 99.5271C69.7564 99.986 69.995 100.39 70.307 100.738C70.619 101.087 70.9999 101.362 71.4495 101.564C71.8992 101.766 72.4085 101.867 72.9775 101.867C73.5373 101.867 74.0282 101.753 74.4504 101.523C74.8725 101.294 75.2304 100.972 75.524 100.56L76.639 101.399C76.5656 101.5 76.4371 101.647 76.2536 101.84C76.0701 102.023 75.8269 102.211 75.524 102.404C75.2212 102.588 74.8541 102.748 74.4228 102.886C74.0007 103.033 73.5097 103.106 72.9499 103.106C72.1791 103.106 71.4817 102.959 70.8576 102.666C70.2428 102.372 69.7151 101.987 69.2746 101.509C68.8433 101.032 68.513 100.495 68.2836 99.8988C68.0541 99.2931 67.9394 98.6829 67.9394 98.068C67.9394 97.3155 68.0633 96.6227 68.3111 95.9895C68.5589 95.3471 68.903 94.7965 69.3435 94.3377C69.7931 93.8696 70.33 93.5072 70.954 93.2502C71.578 92.9933 72.2663 92.8648 73.0188 92.8648C73.6611 92.8648 74.2898 92.9887 74.9046 93.2364C75.5286 93.4842 76.0379 93.8651 76.4325 94.379L75.3313 95.2186ZM77.6453 96.3336H78.8841V97.3385H78.9117C78.9943 97.1641 79.1044 97.0081 79.242 96.8705C79.3797 96.7236 79.5311 96.5997 79.6963 96.4988C79.8706 96.3978 80.0588 96.3198 80.2607 96.2648C80.4625 96.2005 80.6644 96.1684 80.8663 96.1684C81.0682 96.1684 81.2517 96.196 81.4169 96.251L81.3619 97.5862C81.2609 97.5587 81.16 97.5358 81.059 97.5174C80.9581 97.4991 80.8571 97.4899 80.7562 97.4899C80.1505 97.4899 79.6871 97.6597 79.3659 97.9992C79.0447 98.3387 78.8841 98.8664 78.8841 99.5822V102.858H77.6453V96.3336ZM83.1588 100.05C83.1588 100.335 83.2184 100.596 83.3377 100.835C83.4662 101.064 83.6314 101.262 83.8333 101.427C84.0351 101.592 84.2692 101.72 84.5353 101.812C84.8014 101.904 85.0767 101.95 85.3612 101.95C85.7466 101.95 86.0816 101.863 86.3661 101.688C86.6505 101.505 86.9121 101.266 87.1507 100.972L88.0867 101.688C87.3984 102.578 86.4349 103.023 85.196 103.023C84.6821 103.023 84.2141 102.936 83.792 102.762C83.379 102.588 83.0257 102.349 82.732 102.046C82.4476 101.734 82.2273 101.372 82.0713 100.959C81.9153 100.537 81.8373 100.082 81.8373 99.596C81.8373 99.1096 81.9199 98.6599 82.0851 98.247C82.2594 97.8248 82.4934 97.4624 82.7871 97.1595C83.0899 96.8475 83.4478 96.6043 83.8608 96.43C84.2737 96.2556 84.7234 96.1684 85.2098 96.1684C85.7879 96.1684 86.2743 96.2694 86.6689 96.4713C87.0727 96.6732 87.403 96.9393 87.66 97.2696C87.9169 97.5908 88.1005 97.9579 88.2106 98.3709C88.3299 98.7746 88.3895 99.1876 88.3895 99.6097V100.05H83.1588ZM87.0681 99.0591C87.0589 98.7838 87.013 98.5315 86.9304 98.302C86.857 98.0726 86.7423 97.8753 86.5863 97.7101C86.4303 97.5358 86.233 97.4027 85.9944 97.3109C85.765 97.21 85.4943 97.1595 85.1822 97.1595C84.8794 97.1595 84.5995 97.2192 84.3426 97.3385C84.0948 97.4486 83.8837 97.5954 83.7094 97.779C83.535 97.9625 83.3974 98.169 83.2964 98.3984C83.2046 98.6186 83.1588 98.8389 83.1588 99.0591H87.0681ZM96.1347 102.858H94.8958V101.922H94.8683C94.6297 102.271 94.2993 102.542 93.8772 102.734C93.4643 102.927 93.0375 103.023 92.5971 103.023C92.0923 103.023 91.6335 102.936 91.2205 102.762C90.8168 102.588 90.468 102.344 90.1744 102.032C89.8899 101.72 89.6697 101.358 89.5137 100.945C89.3576 100.532 89.2796 100.082 89.2796 99.596C89.2796 99.1096 89.3576 98.6599 89.5137 98.247C89.6697 97.8248 89.8899 97.4624 90.1744 97.1595C90.468 96.8475 90.8168 96.6043 91.2205 96.43C91.6335 96.2556 92.0923 96.1684 92.5971 96.1684C93.0651 96.1684 93.5056 96.2694 93.9185 96.4713C94.3315 96.664 94.6481 96.9301 94.8683 97.2696H94.8958V92.4518H96.1347V102.858ZM92.7485 101.867C93.0788 101.867 93.3771 101.812 93.6432 101.702C93.9093 101.583 94.1342 101.427 94.3177 101.234C94.5012 101.032 94.6435 100.794 94.7444 100.518C94.8454 100.234 94.8958 99.9263 94.8958 99.596C94.8958 99.2656 94.8454 98.9628 94.7444 98.6875C94.6435 98.403 94.5012 98.1644 94.3177 97.9717C94.1342 97.7698 93.9093 97.6138 93.6432 97.5037C93.3771 97.3844 93.0788 97.3247 92.7485 97.3247C92.4181 97.3247 92.1199 97.3844 91.8537 97.5037C91.5876 97.6138 91.3628 97.7698 91.1792 97.9717C90.9957 98.1644 90.8535 98.403 90.7525 98.6875C90.6516 98.9628 90.6011 99.2656 90.6011 99.596C90.6011 99.9263 90.6516 100.234 90.7525 100.518C90.8535 100.794 90.9957 101.032 91.1792 101.234C91.3628 101.427 91.5876 101.583 91.8537 101.702C92.1199 101.812 92.4181 101.867 92.7485 101.867ZM97.8323 96.3336H99.0712V102.858H97.8323V96.3336ZM97.5433 93.9935C97.5433 93.7458 97.6305 93.5347 97.8048 93.3603C97.9883 93.1768 98.204 93.085 98.4518 93.085C98.6995 93.085 98.9106 93.1768 99.085 93.3603C99.2685 93.5347 99.3603 93.7458 99.3603 93.9935C99.3603 94.2413 99.2685 94.457 99.085 94.6405C98.9106 94.8149 98.6995 94.902 98.4518 94.902C98.204 94.902 97.9883 94.8149 97.8048 94.6405C97.6305 94.457 97.5433 94.2413 97.5433 93.9935ZM104.264 97.4073H102.488V100.367C102.488 100.55 102.493 100.734 102.502 100.917C102.511 101.092 102.543 101.252 102.598 101.399C102.663 101.537 102.754 101.652 102.874 101.743C103.002 101.826 103.186 101.867 103.424 101.867C103.571 101.867 103.722 101.853 103.878 101.826C104.034 101.798 104.177 101.748 104.305 101.675V102.803C104.158 102.886 103.966 102.941 103.727 102.968C103.498 103.005 103.319 103.023 103.19 103.023C102.713 103.023 102.341 102.959 102.075 102.831C101.818 102.693 101.626 102.519 101.497 102.308C101.378 102.097 101.304 101.863 101.277 101.606C101.259 101.34 101.249 101.073 101.249 100.807V97.4073H99.8178V96.3336H101.249V94.5028H102.488V96.3336H104.264V97.4073ZM109.239 93.1126H112.639C113.327 93.1126 113.928 93.1906 114.442 93.3466C114.965 93.5026 115.415 93.7136 115.791 93.9798C116.177 94.2367 116.493 94.535 116.741 94.8745C116.998 95.214 117.2 95.5628 117.347 95.9207C117.494 96.2785 117.599 96.6364 117.663 96.9943C117.728 97.3522 117.76 97.6826 117.76 97.9854C117.76 98.6095 117.645 99.2151 117.416 99.8024C117.186 100.381 116.847 100.899 116.397 101.358C115.947 101.808 115.388 102.17 114.718 102.445C114.057 102.721 113.291 102.858 112.419 102.858H109.239V93.1126ZM110.561 101.619H112.226C112.786 101.619 113.314 101.546 113.809 101.399C114.314 101.243 114.754 101.014 115.131 100.711C115.507 100.408 115.805 100.032 116.025 99.5822C116.246 99.1234 116.356 98.5911 116.356 97.9854C116.356 97.6734 116.305 97.3109 116.204 96.898C116.103 96.4759 115.911 96.0767 115.626 95.7004C115.351 95.3242 114.965 95.0076 114.47 94.7506C113.974 94.4845 113.332 94.3514 112.543 94.3514H110.561V101.619ZM119.098 97.132C119.447 96.8108 119.85 96.5722 120.309 96.4162C120.768 96.251 121.227 96.1684 121.686 96.1684C122.163 96.1684 122.571 96.2281 122.911 96.3474C123.26 96.4667 123.544 96.6273 123.764 96.8292C123.985 97.031 124.145 97.2651 124.246 97.5312C124.356 97.7881 124.411 98.0588 124.411 98.3433V101.675C124.411 101.904 124.416 102.115 124.425 102.308C124.434 102.5 124.448 102.684 124.466 102.858H123.365C123.338 102.528 123.324 102.198 123.324 101.867H123.296C123.021 102.289 122.695 102.588 122.319 102.762C121.943 102.936 121.507 103.023 121.011 103.023C120.708 103.023 120.419 102.982 120.144 102.9C119.869 102.817 119.626 102.693 119.415 102.528C119.213 102.363 119.052 102.161 118.933 101.922C118.813 101.675 118.754 101.39 118.754 101.069C118.754 100.647 118.846 100.293 119.029 100.009C119.222 99.7244 119.479 99.495 119.8 99.3207C120.13 99.1371 120.511 99.0086 120.942 98.9352C121.383 98.8526 121.851 98.8113 122.347 98.8113H123.255V98.536C123.255 98.3709 123.223 98.2057 123.159 98.0405C123.094 97.8753 122.998 97.7285 122.87 97.6C122.741 97.4624 122.581 97.3568 122.388 97.2834C122.195 97.2008 121.966 97.1595 121.7 97.1595C121.461 97.1595 121.25 97.1825 121.066 97.2283C120.892 97.2742 120.731 97.3339 120.585 97.4073C120.438 97.4715 120.305 97.5495 120.185 97.6413C120.066 97.7331 119.951 97.8203 119.841 97.9028L119.098 97.132ZM122.594 99.7198C122.301 99.7198 121.998 99.7382 121.686 99.7749C121.383 99.8024 121.103 99.8621 120.846 99.9539C120.598 100.046 120.392 100.174 120.227 100.339C120.071 100.504 119.993 100.716 119.993 100.972C119.993 101.349 120.117 101.619 120.364 101.785C120.621 101.95 120.965 102.032 121.397 102.032C121.736 102.032 122.025 101.977 122.264 101.867C122.503 101.748 122.695 101.596 122.842 101.413C122.989 101.229 123.094 101.028 123.159 100.807C123.223 100.578 123.255 100.353 123.255 100.133V99.7198H122.594ZM129.429 97.4073H127.654V100.367C127.654 100.55 127.658 100.734 127.668 100.917C127.677 101.092 127.709 101.252 127.764 101.399C127.828 101.537 127.92 101.652 128.039 101.743C128.168 101.826 128.351 101.867 128.59 101.867C128.737 101.867 128.888 101.853 129.044 101.826C129.2 101.798 129.342 101.748 129.471 101.675V102.803C129.324 102.886 129.131 102.941 128.893 102.968C128.663 103.005 128.484 103.023 128.356 103.023C127.879 103.023 127.507 102.959 127.241 102.831C126.984 102.693 126.791 102.519 126.663 102.308C126.543 102.097 126.47 101.863 126.442 101.606C126.424 101.34 126.415 101.073 126.415 100.807V97.4073H124.983V96.3336H126.415V94.5028H127.654V96.3336H129.429V97.4073ZM130.78 97.132C131.129 96.8108 131.533 96.5722 131.991 96.4162C132.45 96.251 132.909 96.1684 133.368 96.1684C133.845 96.1684 134.253 96.2281 134.593 96.3474C134.942 96.4667 135.226 96.6273 135.446 96.8292C135.667 97.031 135.827 97.2651 135.928 97.5312C136.038 97.7881 136.093 98.0588 136.093 98.3433V101.675C136.093 101.904 136.098 102.115 136.107 102.308C136.116 102.5 136.13 102.684 136.148 102.858H135.047C135.02 102.528 135.006 102.198 135.006 101.867H134.978C134.703 102.289 134.377 102.588 134.001 102.762C133.625 102.936 133.189 103.023 132.693 103.023C132.391 103.023 132.102 102.982 131.826 102.9C131.551 102.817 131.308 102.693 131.097 102.528C130.895 102.363 130.734 102.161 130.615 101.922C130.496 101.675 130.436 101.39 130.436 101.069C130.436 100.647 130.528 100.293 130.711 100.009C130.904 99.7244 131.161 99.495 131.482 99.3207C131.812 99.1371 132.193 99.0086 132.625 98.9352C133.065 98.8526 133.533 98.8113 134.029 98.8113H134.937V98.536C134.937 98.3709 134.905 98.2057 134.841 98.0405C134.777 97.8753 134.68 97.7285 134.552 97.6C134.423 97.4624 134.263 97.3568 134.07 97.2834C133.877 97.2008 133.648 97.1595 133.382 97.1595C133.143 97.1595 132.932 97.1825 132.748 97.2283C132.574 97.2742 132.414 97.3339 132.267 97.4073C132.12 97.4715 131.987 97.5495 131.868 97.6413C131.748 97.7331 131.634 97.8203 131.523 97.9028L130.78 97.132ZM134.276 99.7198C133.983 99.7198 133.68 99.7382 133.368 99.7749C133.065 99.8024 132.785 99.8621 132.528 99.9539C132.28 100.046 132.074 100.174 131.909 100.339C131.753 100.504 131.675 100.716 131.675 100.972C131.675 101.349 131.799 101.619 132.046 101.785C132.303 101.95 132.648 102.032 133.079 102.032C133.418 102.032 133.707 101.977 133.946 101.867C134.185 101.748 134.377 101.596 134.524 101.413C134.671 101.229 134.777 101.028 134.841 100.807C134.905 100.578 134.937 100.353 134.937 100.133V99.7198H134.276ZM144.544 93.1126H145.741L149.912 102.858H148.37L147.393 100.449H142.754L141.79 102.858H140.249L144.544 93.1126ZM146.911 99.2931L145.094 94.8194H145.067L143.222 99.2931H146.911ZM150.904 93.1126H154.332C154.956 93.1126 155.47 93.1997 155.874 93.3741C156.277 93.5393 156.594 93.7549 156.823 94.0211C157.062 94.278 157.227 94.5717 157.319 94.902C157.411 95.2232 157.457 95.5352 157.457 95.8381C157.457 96.1409 157.411 96.4575 157.319 96.7879C157.227 97.109 157.062 97.4027 156.823 97.6688C156.594 97.9258 156.277 98.1414 155.874 98.3158C155.47 98.481 154.956 98.5636 154.332 98.5636H152.226V102.858H150.904V93.1126ZM152.226 97.4073H153.96C154.217 97.4073 154.47 97.3889 154.717 97.3522C154.974 97.3064 155.199 97.2283 155.392 97.1182C155.594 97.0081 155.754 96.8521 155.874 96.6502C155.993 96.4391 156.053 96.1684 156.053 95.8381C156.053 95.5077 155.993 95.2416 155.874 95.0397C155.754 94.8286 155.594 94.668 155.392 94.5579C155.199 94.4478 154.974 94.3744 154.717 94.3377C154.47 94.2918 154.217 94.2688 153.96 94.2688H152.226V97.4073ZM158.789 93.1126H160.11V102.858H158.789V93.1126Z" fill="#122645"/>
</svg>
