<svg width="200" height="200" viewBox="0 0 200 200" fill="none" xmlns="http://www.w3.org/2000/svg">
<path d="M47.878 95.0554C47.5166 94.5855 47.0587 94.2241 46.5045 93.9711C45.9502 93.718 45.3779 93.5915 44.7875 93.5915C44.0646 93.5915 43.408 93.7301 42.8176 94.0072C42.2392 94.2723 41.7392 94.6398 41.3175 95.1097C40.9079 95.5796 40.5886 96.1338 40.3597 96.7724C40.1307 97.3989 40.0163 98.0736 40.0163 98.7965C40.0163 99.4713 40.1247 100.11 40.3416 100.712C40.5585 101.315 40.8717 101.845 41.2814 102.303C41.691 102.761 42.1911 103.122 42.7814 103.387C43.3718 103.652 44.0405 103.785 44.7875 103.785C45.5225 103.785 46.1671 103.634 46.7213 103.333C47.2756 103.032 47.7455 102.61 48.131 102.068L49.5949 103.17C49.4986 103.303 49.3299 103.496 49.0889 103.749C48.8479 103.99 48.5286 104.237 48.131 104.49C47.7334 104.731 47.2515 104.941 46.6852 105.122C46.131 105.315 45.4864 105.411 44.7514 105.411C43.7393 105.411 42.8236 105.218 42.0043 104.833C41.197 104.447 40.5042 103.941 39.9259 103.315C39.3596 102.688 38.9259 101.983 38.6247 101.2C38.3234 100.405 38.1728 99.6038 38.1728 98.7965C38.1728 97.8086 38.3355 96.8989 38.6608 96.0675C38.9861 95.2241 39.4379 94.5012 40.0163 93.8988C40.6067 93.2843 41.3115 92.8084 42.1308 92.471C42.9501 92.1336 43.8538 91.965 44.8418 91.965C45.6852 91.965 46.5105 92.1276 47.3177 92.4529C48.1371 92.7782 48.8058 93.2783 49.3238 93.953L47.878 95.0554ZM50.9161 96.5194H52.5427V97.8387H52.5788C52.6873 97.6098 52.8318 97.4049 53.0126 97.2242C53.1933 97.0314 53.3921 96.8688 53.609 96.7362C53.8379 96.6037 54.0849 96.5013 54.35 96.429C54.615 96.3446 54.8801 96.3025 55.1452 96.3025C55.4102 96.3025 55.6512 96.3386 55.8681 96.4109L55.7958 98.164C55.6633 98.1278 55.5307 98.0977 55.3982 98.0736C55.2657 98.0495 55.1331 98.0375 55.0006 98.0375C54.2054 98.0375 53.5969 98.2604 53.1752 98.7062C52.7535 99.152 52.5427 99.8448 52.5427 100.785V105.086H50.9161V96.5194ZM58.155 101.399C58.155 101.773 58.2333 102.116 58.39 102.429C58.5587 102.73 58.7755 102.989 59.0406 103.206C59.3057 103.423 59.6129 103.592 59.9623 103.712C60.3117 103.833 60.6732 103.893 61.0467 103.893C61.5528 103.893 61.9925 103.779 62.366 103.55C62.7395 103.309 63.0829 102.995 63.3962 102.61L64.6252 103.55C63.7215 104.718 62.4564 105.303 60.8298 105.303C60.1551 105.303 59.5406 105.188 58.9864 104.959C58.4442 104.731 57.9803 104.417 57.5948 104.02C57.2213 103.61 56.9321 103.134 56.7273 102.592C56.5224 102.038 56.42 101.441 56.42 100.803C56.42 100.164 56.5285 99.5737 56.7453 99.0315C56.9743 98.4773 57.2815 98.0013 57.6671 97.6037C58.0647 97.1941 58.5346 96.8748 59.0768 96.6459C59.6189 96.4169 60.2093 96.3025 60.8479 96.3025C61.607 96.3025 62.2455 96.435 62.7636 96.7001C63.2938 96.9652 63.7275 97.3146 64.0649 97.7483C64.4023 98.17 64.6432 98.652 64.7878 99.1942C64.9444 99.7243 65.0228 100.266 65.0228 100.821V101.399H58.155ZM63.2878 100.098C63.2757 99.7363 63.2155 99.405 63.107 99.1038C63.0106 98.8026 62.86 98.5435 62.6552 98.3266C62.4504 98.0977 62.1913 97.923 61.8781 97.8025C61.5768 97.67 61.2214 97.6037 60.8118 97.6037C60.4142 97.6037 60.0467 97.682 59.7093 97.8387C59.384 97.9833 59.1069 98.176 58.878 98.417C58.649 98.658 58.4683 98.9291 58.3358 99.2303C58.2153 99.5195 58.155 99.8086 58.155 100.098H63.2878ZM75.1918 105.086H73.5652V103.857H73.5291C73.2158 104.315 72.782 104.67 72.2278 104.923C71.6856 105.176 71.1254 105.303 70.547 105.303C69.8843 105.303 69.2819 105.188 68.7397 104.959C68.2096 104.731 67.7517 104.411 67.3662 104.002C66.9927 103.592 66.7035 103.116 66.4987 102.574C66.2938 102.032 66.1914 101.441 66.1914 100.803C66.1914 100.164 66.2938 99.5737 66.4987 99.0315C66.7035 98.4773 66.9927 98.0013 67.3662 97.6037C67.7517 97.1941 68.2096 96.8748 68.7397 96.6459C69.2819 96.4169 69.8843 96.3025 70.547 96.3025C71.1615 96.3025 71.7398 96.435 72.282 96.7001C72.8242 96.9531 73.2399 97.3025 73.5291 97.7483H73.5652V91.4228H75.1918V105.086ZM70.7458 103.785C71.1796 103.785 71.5712 103.712 71.9206 103.568C72.27 103.411 72.5652 103.206 72.8061 102.953C73.0471 102.688 73.2339 102.375 73.3664 102.014C73.4989 101.64 73.5652 101.236 73.5652 100.803C73.5652 100.369 73.4989 99.9713 73.3664 99.6098C73.2339 99.2363 73.0471 98.9231 72.8061 98.67C72.5652 98.405 72.27 98.2001 71.9206 98.0556C71.5712 97.8989 71.1796 97.8206 70.7458 97.8206C70.3121 97.8206 69.9205 97.8989 69.5711 98.0556C69.2217 98.2001 68.9265 98.405 68.6855 98.67C68.4445 98.9231 68.2578 99.2363 68.1252 99.6098C67.9927 99.9713 67.9264 100.369 67.9264 100.803C67.9264 101.236 67.9927 101.64 68.1252 102.014C68.2578 102.375 68.4445 102.688 68.6855 102.953C68.9265 103.206 69.2217 103.411 69.5711 103.568C69.9205 103.712 70.3121 103.785 70.7458 103.785ZM77.4207 96.5194H79.0472V105.086H77.4207V96.5194ZM77.0411 93.4469C77.0411 93.1216 77.1556 92.8445 77.3845 92.6156C77.6255 92.3746 77.9086 92.2541 78.234 92.2541C78.5593 92.2541 78.8364 92.3746 79.0653 92.6156C79.3063 92.8445 79.4268 93.1216 79.4268 93.4469C79.4268 93.7723 79.3063 94.0554 79.0653 94.2964C78.8364 94.5253 78.5593 94.6398 78.234 94.6398C77.9086 94.6398 77.6255 94.5253 77.3845 94.2964C77.1556 94.0554 77.0411 93.7723 77.0411 93.4469ZM85.865 97.929H83.5336V101.815C83.5336 102.056 83.5396 102.297 83.5516 102.538C83.5637 102.767 83.6059 102.977 83.6782 103.17C83.7625 103.351 83.883 103.502 84.0396 103.622C84.2083 103.73 84.4493 103.785 84.7625 103.785C84.9553 103.785 85.1541 103.767 85.3589 103.73C85.5638 103.694 85.7505 103.628 85.9192 103.532V105.014C85.7264 105.122 85.4734 105.194 85.1601 105.231C84.8589 105.279 84.624 105.303 84.4553 105.303C83.8288 105.303 83.3408 105.218 82.9914 105.05C82.654 104.869 82.401 104.64 82.2323 104.363C82.0757 104.086 81.9793 103.779 81.9432 103.441C81.9191 103.092 81.907 102.742 81.907 102.393V97.929H80.0274V96.5194H81.907V94.1156H83.5336V96.5194H85.865V97.929ZM92.3972 92.2903H96.8613C97.7649 92.2903 98.5541 92.3927 99.2288 92.5975C99.9156 92.8023 100.506 93.0795 101 93.4289C101.506 93.7662 101.922 94.1578 102.247 94.6036C102.584 95.0494 102.849 95.5073 103.042 95.9772C103.235 96.4471 103.374 96.917 103.458 97.3869C103.542 97.8568 103.584 98.2905 103.584 98.6881C103.584 99.5074 103.434 100.303 103.133 101.074C102.831 101.833 102.386 102.514 101.795 103.116C101.205 103.706 100.47 104.182 99.5903 104.544C98.7228 104.905 97.7167 105.086 96.5721 105.086H92.3972V92.2903ZM94.1322 103.459H96.3191C97.054 103.459 97.7468 103.363 98.3975 103.17C99.0601 102.965 99.6385 102.664 100.132 102.267C100.626 101.869 101.018 101.375 101.307 100.785C101.596 100.182 101.741 99.4833 101.741 98.6881C101.741 98.2785 101.675 97.8025 101.542 97.2603C101.41 96.7061 101.157 96.182 100.783 95.688C100.422 95.194 99.9156 94.7783 99.265 94.441C98.6143 94.0915 97.7709 93.9168 96.7347 93.9168H94.1322V103.459ZM105.341 97.5676C105.799 97.1459 106.329 96.8326 106.932 96.6278C107.534 96.4109 108.137 96.3025 108.739 96.3025C109.366 96.3025 109.902 96.3808 110.348 96.5374C110.805 96.6941 111.179 96.9049 111.468 97.17C111.757 97.435 111.968 97.7423 112.101 98.0917C112.245 98.4291 112.317 98.7845 112.317 99.158V103.532C112.317 103.833 112.323 104.11 112.336 104.363C112.348 104.616 112.366 104.857 112.39 105.086H110.944C110.908 104.652 110.89 104.218 110.89 103.785H110.854C110.492 104.339 110.064 104.731 109.57 104.959C109.076 105.188 108.504 105.303 107.853 105.303C107.456 105.303 107.076 105.249 106.715 105.14C106.353 105.032 106.034 104.869 105.757 104.652C105.492 104.435 105.281 104.17 105.124 103.857C104.968 103.532 104.889 103.158 104.889 102.736C104.889 102.182 105.01 101.718 105.251 101.345C105.504 100.971 105.841 100.67 106.263 100.441C106.697 100.2 107.197 100.032 107.763 99.9351C108.341 99.8267 108.956 99.7725 109.607 99.7725H110.799V99.411C110.799 99.1942 110.757 98.9773 110.673 98.7604C110.588 98.5435 110.462 98.3507 110.293 98.1821C110.125 98.0013 109.914 97.8628 109.661 97.7664C109.408 97.6579 109.106 97.6037 108.757 97.6037C108.444 97.6037 108.167 97.6339 107.926 97.6941C107.697 97.7543 107.486 97.8327 107.293 97.929C107.1 98.0134 106.926 98.1158 106.769 98.2363C106.612 98.3568 106.462 98.4712 106.317 98.5797L105.341 97.5676ZM109.932 100.965C109.546 100.965 109.149 100.989 108.739 101.038C108.341 101.074 107.974 101.152 107.637 101.273C107.311 101.393 107.04 101.562 106.823 101.779C106.618 101.995 106.516 102.273 106.516 102.61C106.516 103.104 106.679 103.459 107.004 103.676C107.341 103.893 107.793 104.002 108.359 104.002C108.805 104.002 109.185 103.929 109.498 103.785C109.811 103.628 110.064 103.429 110.257 103.188C110.45 102.947 110.588 102.682 110.673 102.393C110.757 102.092 110.799 101.797 110.799 101.507V100.965H109.932ZM118.906 97.929H116.575V101.815C116.575 102.056 116.581 102.297 116.593 102.538C116.605 102.767 116.647 102.977 116.719 103.17C116.804 103.351 116.924 103.502 117.081 103.622C117.249 103.73 117.49 103.785 117.804 103.785C117.996 103.785 118.195 103.767 118.4 103.73C118.605 103.694 118.792 103.628 118.96 103.532V105.014C118.767 105.122 118.514 105.194 118.201 105.231C117.9 105.279 117.665 105.303 117.496 105.303C116.87 105.303 116.382 105.218 116.032 105.05C115.695 104.869 115.442 104.64 115.273 104.363C115.117 104.086 115.02 103.779 114.984 103.441C114.96 103.092 114.948 102.742 114.948 102.393V97.929H113.068V96.5194H114.948V94.1156H116.575V96.5194H118.906V97.929ZM120.679 97.5676C121.137 97.1459 121.667 96.8326 122.27 96.6278C122.872 96.4109 123.475 96.3025 124.077 96.3025C124.704 96.3025 125.24 96.3808 125.686 96.5374C126.143 96.6941 126.517 96.9049 126.806 97.17C127.095 97.435 127.306 97.7423 127.439 98.0917C127.583 98.4291 127.655 98.7845 127.655 99.158V103.532C127.655 103.833 127.661 104.11 127.674 104.363C127.686 104.616 127.704 104.857 127.728 105.086H126.282C126.246 104.652 126.228 104.218 126.228 103.785H126.192C125.83 104.339 125.402 104.731 124.908 104.959C124.414 105.188 123.842 105.303 123.191 105.303C122.794 105.303 122.414 105.249 122.053 105.14C121.691 105.032 121.372 104.869 121.095 104.652C120.83 104.435 120.619 104.17 120.462 103.857C120.306 103.532 120.227 103.158 120.227 102.736C120.227 102.182 120.348 101.718 120.589 101.345C120.842 100.971 121.179 100.67 121.601 100.441C122.035 100.2 122.535 100.032 123.101 99.9351C123.679 99.8267 124.294 99.7725 124.945 99.7725H126.137V99.411C126.137 99.1942 126.095 98.9773 126.011 98.7604C125.926 98.5435 125.8 98.3507 125.631 98.1821C125.463 98.0013 125.252 97.8628 124.999 97.7664C124.746 97.6579 124.445 97.6037 124.095 97.6037C123.782 97.6037 123.505 97.6339 123.264 97.6941C123.035 97.7543 122.824 97.8327 122.631 97.929C122.438 98.0134 122.264 98.1158 122.107 98.2363C121.95 98.3568 121.8 98.4712 121.655 98.5797L120.679 97.5676ZM125.27 100.965C124.884 100.965 124.487 100.989 124.077 101.038C123.679 101.074 123.312 101.152 122.975 101.273C122.649 101.393 122.378 101.562 122.161 101.779C121.956 101.995 121.854 102.273 121.854 102.61C121.854 103.104 122.017 103.459 122.342 103.676C122.679 103.893 123.131 104.002 123.697 104.002C124.143 104.002 124.523 103.929 124.836 103.785C125.149 103.628 125.402 103.429 125.595 103.188C125.788 102.947 125.926 102.682 126.011 102.393C126.095 102.092 126.137 101.797 126.137 101.507V100.965H125.27ZM138.75 92.2903H140.322L145.798 105.086H143.774L142.491 101.923H136.401L135.135 105.086H133.111L138.75 92.2903ZM141.859 100.405L139.473 94.5313H139.437L137.015 100.405H141.859ZM147.102 92.2903H151.602C152.421 92.2903 153.096 92.4047 153.626 92.6337C154.156 92.8505 154.572 93.1337 154.873 93.4831C155.186 93.8205 155.403 94.206 155.524 94.6398C155.644 95.0615 155.704 95.4711 155.704 95.8687C155.704 96.2663 155.644 96.682 155.524 97.1158C155.403 97.5375 155.186 97.923 154.873 98.2724C154.572 98.6098 154.156 98.8929 153.626 99.1219C153.096 99.3387 152.421 99.4472 151.602 99.4472H148.837V105.086H147.102V92.2903ZM148.837 97.929H151.114C151.451 97.929 151.782 97.9049 152.108 97.8568C152.445 97.7965 152.74 97.6941 152.993 97.5495C153.258 97.4049 153.469 97.2001 153.626 96.935C153.783 96.6579 153.861 96.3025 153.861 95.8687C153.861 95.435 153.783 95.0856 153.626 94.8205C153.469 94.5434 153.258 94.3325 152.993 94.1879C152.74 94.0434 152.445 93.947 152.108 93.8988C151.782 93.8385 151.451 93.8084 151.114 93.8084H148.837V97.929ZM157.453 92.2903H159.188V105.086H157.453V92.2903Z" fill="#122645"/>
</svg>
