<svg width="592" height="30" viewBox="0 0 592 30" fill="none" xmlns="http://www.w3.org/2000/svg">
<path d="M22.2479 5.50012L13.7286 20.1536H12.7806L10.0353 15.4164H5L10.2199 24.4982H16.3016L27.2708 5.50012H22.2479Z" fill="#FF9245"/>
<path d="M21.2753 24.4981L19.2562 21.0127L17.2249 24.4981H21.2753Z" fill="#132645"/>
<path d="M18.7638 9.83236L21.2753 5.50012H10.2692L5 14.5819H10.0353L12.7806 9.83236H18.7638Z" fill="#132645"/>
<path d="M54.19 19.393C54.19 18.6734 53.9353 18.1231 53.4257 17.7421C52.9161 17.3527 51.9989 16.9463 50.674 16.523C49.3492 16.0912 48.3003 15.6679 47.5275 15.253C45.4213 14.1186 44.3682 12.5904 44.3682 10.6686C44.3682 9.6696 44.6484 8.78065 45.2089 8.00176C45.778 7.2144 46.589 6.6006 47.6421 6.16036C48.7037 5.72012 49.8927 5.5 51.2091 5.5C52.534 5.5 53.7144 5.74129 54.7506 6.22386C55.7867 6.69797 56.5892 7.37103 57.1583 8.24305C57.7358 9.11506 58.0245 10.1056 58.0245 11.2147H54.2028C54.2028 10.3681 53.9353 9.71193 53.4002 9.24629C52.8652 8.77218 52.1136 8.53513 51.1454 8.53513C50.2112 8.53513 49.4851 8.73408 48.967 9.13199C48.4489 9.52144 48.1899 10.0379 48.1899 10.6813C48.1899 11.2824 48.4914 11.7861 49.0944 12.1925C49.7059 12.5989 50.6018 12.9799 51.7823 13.3355C53.9565 13.9874 55.5404 14.7959 56.534 15.761C57.5277 16.7262 58.0245 17.9284 58.0245 19.3676C58.0245 20.9677 57.4173 22.225 56.2028 23.1393C54.9884 24.0452 53.3535 24.4981 51.2983 24.4981C49.8715 24.4981 48.5721 24.2399 47.4001 23.7235C46.2281 23.1986 45.3321 22.4832 44.7121 21.5773C44.1006 20.6714 43.7949 19.6216 43.7949 18.4279H47.6294C47.6294 20.4682 48.8523 21.4884 51.2983 21.4884C52.207 21.4884 52.9161 21.3064 53.4257 20.9423C53.9353 20.5698 54.19 20.0534 54.19 19.393Z" fill="#132645"/>
<path d="M35.1649 17.5451H32.0246V24.5H28.0828V5.50134H35.1912C37.4512 5.50134 39.1944 6.00154 40.4207 7.00192C41.6471 8.00231 42.2602 9.4159 42.2602 11.2427C42.2602 12.5389 41.9755 13.6219 41.4062 14.4918C40.8456 15.353 39.9915 16.0402 38.844 16.5535L42.9829 24.3173V24.5H38.752L35.1649 17.5451ZM32.0246 14.3744H35.2044C36.1942 14.3744 36.9607 14.1264 37.5038 13.6306C38.0469 13.126 38.3184 12.4345 38.3184 11.5559C38.3184 10.6599 38.06 9.95524 37.5432 9.442C37.0351 8.92876 36.2511 8.67214 35.1912 8.67214H32.0246V14.3744Z" fill="#132645"/>
<path d="M58.7134 23.3567C58.7134 23.1515 58.7634 22.9611 58.8632 22.7853C58.9641 22.6096 59.1031 22.4714 59.2802 22.3709C59.4584 22.2693 59.6506 22.2185 59.8567 22.2185C60.0628 22.2185 60.2544 22.2693 60.4316 22.3709C60.6098 22.4714 60.7488 22.6096 60.8486 22.7853C60.9495 22.9611 61 23.1515 61 23.3567C61 23.564 60.949 23.756 60.847 23.9327C60.745 24.1085 60.6055 24.2466 60.4284 24.3472C60.2523 24.4477 60.0618 24.498 59.8567 24.498C59.6495 24.498 59.4574 24.4472 59.2802 24.3457C59.1042 24.2441 58.9657 24.1054 58.8648 23.9297C58.7639 23.7539 58.7134 23.563 58.7134 23.3567ZM60.8019 23.3567C60.8019 23.1881 60.7617 23.0317 60.6812 22.8874C60.6006 22.7422 60.4869 22.6264 60.3398 22.54C60.1927 22.4527 60.0317 22.409 59.8567 22.409C59.686 22.409 59.5271 22.4506 59.3801 22.5339C59.2341 22.6172 59.1192 22.732 59.0355 22.8783C58.9517 23.0246 58.9099 23.1841 58.9099 23.3567C58.9099 23.5294 58.9512 23.6889 59.0339 23.8352C59.1176 23.9815 59.2325 24.0973 59.3785 24.1826C59.5255 24.2669 59.685 24.3091 59.8567 24.3091C60.0285 24.3091 60.1879 24.2659 60.335 24.1796C60.4831 24.0932 60.598 23.9769 60.6796 23.8306C60.7611 23.6843 60.8019 23.5264 60.8019 23.3567ZM59.6248 23.4725V23.986H59.3817V22.6909H59.8342C59.9963 22.6909 60.124 22.7259 60.2174 22.796C60.3108 22.8651 60.3575 22.9636 60.3575 23.0916C60.3575 23.2054 60.2968 23.2938 60.1755 23.3567C60.241 23.3882 60.2867 23.4324 60.3124 23.4893C60.3393 23.5452 60.3527 23.6148 60.3527 23.6981C60.3527 23.7814 60.3543 23.8403 60.3575 23.8748C60.3618 23.9094 60.3693 23.9383 60.38 23.9617V23.986H60.1305C60.1165 23.9515 60.1095 23.853 60.1095 23.6904C60.1095 23.6132 60.0918 23.5579 60.0564 23.5244C60.021 23.4898 59.9619 23.4725 59.8793 23.4725H59.6248ZM59.6248 23.2684H59.8438C59.9233 23.2684 59.9882 23.2521 60.0387 23.2196C60.0902 23.1871 60.116 23.1444 60.116 23.0916C60.116 23.0205 60.0966 22.9702 60.058 22.9408C60.0204 22.9103 59.9517 22.8945 59.8519 22.8935H59.6248V23.2684Z" fill="#132645"/>
<path d="M75.547 11.464H79.729C80.2503 11.464 80.732 11.5263 81.174 11.651C81.6273 11.7757 82.0127 11.9627 82.33 12.212C82.6587 12.45 82.9137 12.7617 83.095 13.147C83.2877 13.521 83.384 13.963 83.384 14.473C83.384 15.1643 83.1913 15.731 82.806 16.173C82.4207 16.6037 81.922 16.921 81.31 17.125V17.159C81.6727 17.1817 82.0127 17.278 82.33 17.448C82.6473 17.6067 82.9193 17.822 83.146 18.094C83.384 18.3547 83.571 18.6607 83.707 19.012C83.843 19.3633 83.911 19.743 83.911 20.151C83.911 20.695 83.7977 21.1767 83.571 21.596C83.3557 22.004 83.0553 22.3497 82.67 22.633C82.2847 22.9163 81.837 23.1317 81.327 23.279C80.817 23.4263 80.2673 23.5 79.678 23.5H75.547V11.464ZM77.179 16.462H79.406C79.712 16.462 80.001 16.4337 80.273 16.377C80.545 16.309 80.783 16.2013 80.987 16.054C81.191 15.9067 81.3497 15.7197 81.463 15.493C81.5877 15.2663 81.65 14.9887 81.65 14.66C81.65 14.184 81.497 13.7703 81.191 13.419C80.885 13.0677 80.4033 12.892 79.746 12.892H77.179V16.462ZM77.179 22.072H79.576C79.8253 22.072 80.0973 22.0493 80.392 22.004C80.698 21.9473 80.9813 21.8453 81.242 21.698C81.5027 21.5393 81.7237 21.3297 81.905 21.069C82.0863 20.8083 82.177 20.4627 82.177 20.032C82.177 19.318 81.9447 18.7853 81.48 18.434C81.0153 18.0713 80.3863 17.89 79.593 17.89H77.179V22.072ZM92.664 23.5H91.134V22.259H91.1C90.9073 22.6897 90.573 23.041 90.097 23.313C89.621 23.5737 89.0713 23.704 88.448 23.704C88.0513 23.704 87.6773 23.6417 87.326 23.517C86.9747 23.4037 86.663 23.2223 86.391 22.973C86.1303 22.7237 85.9207 22.4063 85.762 22.021C85.6033 21.6243 85.524 21.1597 85.524 20.627V15.442H87.054V20.202C87.054 20.576 87.105 20.899 87.207 21.171C87.309 21.4317 87.445 21.647 87.615 21.817C87.785 21.9757 87.9777 22.0947 88.193 22.174C88.4197 22.242 88.652 22.276 88.89 22.276C89.2073 22.276 89.502 22.225 89.774 22.123C90.046 22.021 90.284 21.8623 90.488 21.647C90.692 21.4203 90.8507 21.137 90.964 20.797C91.0773 20.457 91.134 20.0547 91.134 19.59V15.442H92.664V23.5ZM98.9143 17.465C98.733 17.2383 98.5063 17.0513 98.2343 16.904C97.9736 16.7453 97.6506 16.666 97.2653 16.666C96.9026 16.666 96.5853 16.7453 96.3133 16.904C96.0526 17.0513 95.9223 17.2723 95.9223 17.567C95.9223 17.805 95.996 17.9977 96.1433 18.145C96.302 18.2923 96.4833 18.4113 96.6873 18.502C96.9026 18.5927 97.1293 18.6607 97.3673 18.706C97.6053 18.7513 97.8093 18.791 97.9793 18.825C98.308 18.9043 98.614 19.0007 98.8973 19.114C99.192 19.2273 99.4413 19.3747 99.6453 19.556C99.8606 19.7373 100.025 19.9583 100.138 20.219C100.263 20.4797 100.325 20.797 100.325 21.171C100.325 21.6243 100.229 22.0153 100.036 22.344C99.8436 22.6613 99.5943 22.922 99.2883 23.126C98.9823 23.33 98.631 23.4773 98.2343 23.568C97.849 23.6587 97.458 23.704 97.0613 23.704C96.3926 23.704 95.8033 23.602 95.2933 23.398C94.7946 23.194 94.347 22.82 93.9503 22.276L95.1063 21.324C95.3556 21.5733 95.6333 21.7943 95.9393 21.987C96.2453 22.1797 96.6193 22.276 97.0613 22.276C97.254 22.276 97.4466 22.259 97.6393 22.225C97.8433 22.1797 98.019 22.1173 98.1663 22.038C98.325 21.9473 98.4496 21.8397 98.5403 21.715C98.6423 21.579 98.6933 21.426 98.6933 21.256C98.6933 21.0293 98.6196 20.8423 98.4723 20.695C98.3363 20.5477 98.1663 20.4343 97.9623 20.355C97.7696 20.2643 97.56 20.1963 97.3333 20.151C97.118 20.0943 96.9253 20.049 96.7553 20.015C96.4266 19.9357 96.115 19.845 95.8203 19.743C95.5256 19.641 95.265 19.505 95.0383 19.335C94.8116 19.165 94.6303 18.9497 94.4943 18.689C94.3583 18.4283 94.2903 18.1053 94.2903 17.72C94.2903 17.3007 94.3753 16.938 94.5453 16.632C94.7266 16.3147 94.959 16.054 95.2423 15.85C95.537 15.646 95.8656 15.493 96.2283 15.391C96.6023 15.289 96.9763 15.238 97.3503 15.238C97.8943 15.238 98.4156 15.34 98.9143 15.544C99.413 15.748 99.8096 16.088 100.104 16.564L98.9143 17.465ZM101.963 15.442H103.493V23.5H101.963V15.442ZM101.606 12.552C101.606 12.246 101.714 11.9853 101.929 11.77C102.156 11.5433 102.422 11.43 102.728 11.43C103.034 11.43 103.295 11.5433 103.51 11.77C103.737 11.9853 103.85 12.246 103.85 12.552C103.85 12.858 103.737 13.1243 103.51 13.351C103.295 13.5663 103.034 13.674 102.728 13.674C102.422 13.674 102.156 13.5663 101.929 13.351C101.714 13.1243 101.606 12.858 101.606 12.552ZM105.588 15.442H107.118V16.683H107.152C107.345 16.2523 107.679 15.9067 108.155 15.646C108.631 15.374 109.181 15.238 109.804 15.238C110.189 15.238 110.558 15.3003 110.909 15.425C111.272 15.5383 111.583 15.7197 111.844 15.969C112.116 16.2183 112.331 16.5413 112.49 16.938C112.649 17.3233 112.728 17.7823 112.728 18.315V23.5H111.198V18.74C111.198 18.366 111.147 18.0487 111.045 17.788C110.943 17.516 110.807 17.3007 110.637 17.142C110.467 16.972 110.269 16.853 110.042 16.785C109.827 16.7057 109.6 16.666 109.362 16.666C109.045 16.666 108.75 16.717 108.478 16.819C108.206 16.921 107.968 17.0853 107.764 17.312C107.56 17.5273 107.401 17.805 107.288 18.145C107.175 18.485 107.118 18.8873 107.118 19.352V23.5H105.588V15.442ZM115.85 20.032C115.85 20.3833 115.924 20.7063 116.071 21.001C116.23 21.2843 116.434 21.528 116.683 21.732C116.933 21.936 117.222 22.0947 117.55 22.208C117.879 22.3213 118.219 22.378 118.57 22.378C119.046 22.378 119.46 22.2703 119.811 22.055C120.163 21.8283 120.486 21.5337 120.78 21.171L121.936 22.055C121.086 23.1543 119.896 23.704 118.366 23.704C117.732 23.704 117.154 23.5963 116.632 23.381C116.122 23.1657 115.686 22.871 115.323 22.497C114.972 22.1117 114.7 21.664 114.507 21.154C114.315 20.6327 114.218 20.0717 114.218 19.471C114.218 18.8703 114.32 18.315 114.524 17.805C114.74 17.2837 115.029 16.836 115.391 16.462C115.765 16.0767 116.207 15.7763 116.717 15.561C117.227 15.3457 117.783 15.238 118.383 15.238C119.097 15.238 119.698 15.3627 120.185 15.612C120.684 15.8613 121.092 16.19 121.409 16.598C121.727 16.9947 121.953 17.448 122.089 17.958C122.237 18.4567 122.31 18.9667 122.31 19.488V20.032H115.85ZM120.678 18.808C120.667 18.468 120.61 18.1563 120.508 17.873C120.418 17.5897 120.276 17.346 120.083 17.142C119.891 16.9267 119.647 16.7623 119.352 16.649C119.069 16.5243 118.735 16.462 118.349 16.462C117.975 16.462 117.63 16.5357 117.312 16.683C117.006 16.819 116.746 17.0003 116.53 17.227C116.315 17.4537 116.145 17.7087 116.02 17.992C115.907 18.264 115.85 18.536 115.85 18.808H120.678ZM128.085 17.465C127.903 17.2383 127.677 17.0513 127.405 16.904C127.144 16.7453 126.821 16.666 126.436 16.666C126.073 16.666 125.756 16.7453 125.484 16.904C125.223 17.0513 125.093 17.2723 125.093 17.567C125.093 17.805 125.166 17.9977 125.314 18.145C125.472 18.2923 125.654 18.4113 125.858 18.502C126.073 18.5927 126.3 18.6607 126.538 18.706C126.776 18.7513 126.98 18.791 127.15 18.825C127.478 18.9043 127.784 19.0007 128.068 19.114C128.362 19.2273 128.612 19.3747 128.816 19.556C129.031 19.7373 129.195 19.9583 129.309 20.219C129.433 20.4797 129.496 20.797 129.496 21.171C129.496 21.6243 129.399 22.0153 129.207 22.344C129.014 22.6613 128.765 22.922 128.459 23.126C128.153 23.33 127.801 23.4773 127.405 23.568C127.019 23.6587 126.628 23.704 126.232 23.704C125.563 23.704 124.974 23.602 124.464 23.398C123.965 23.194 123.517 22.82 123.121 22.276L124.277 21.324C124.526 21.5733 124.804 21.7943 125.11 21.987C125.416 22.1797 125.79 22.276 126.232 22.276C126.424 22.276 126.617 22.259 126.81 22.225C127.014 22.1797 127.189 22.1173 127.337 22.038C127.495 21.9473 127.62 21.8397 127.711 21.715C127.813 21.579 127.864 21.426 127.864 21.256C127.864 21.0293 127.79 20.8423 127.643 20.695C127.507 20.5477 127.337 20.4343 127.133 20.355C126.94 20.2643 126.73 20.1963 126.504 20.151C126.288 20.0943 126.096 20.049 125.926 20.015C125.597 19.9357 125.285 19.845 124.991 19.743C124.696 19.641 124.435 19.505 124.209 19.335C123.982 19.165 123.801 18.9497 123.665 18.689C123.529 18.4283 123.461 18.1053 123.461 17.72C123.461 17.3007 123.546 16.938 123.716 16.632C123.897 16.3147 124.129 16.054 124.413 15.85C124.707 15.646 125.036 15.493 125.399 15.391C125.773 15.289 126.147 15.238 126.521 15.238C127.065 15.238 127.586 15.34 128.085 15.544C128.583 15.748 128.98 16.088 129.275 16.564L128.085 17.465ZM135.298 17.465C135.117 17.2383 134.89 17.0513 134.618 16.904C134.358 16.7453 134.035 16.666 133.649 16.666C133.287 16.666 132.969 16.7453 132.697 16.904C132.437 17.0513 132.306 17.2723 132.306 17.567C132.306 17.805 132.38 17.9977 132.527 18.145C132.686 18.2923 132.867 18.4113 133.071 18.502C133.287 18.5927 133.513 18.6607 133.751 18.706C133.989 18.7513 134.193 18.791 134.363 18.825C134.692 18.9043 134.998 19.0007 135.281 19.114C135.576 19.2273 135.825 19.3747 136.029 19.556C136.245 19.7373 136.409 19.9583 136.522 20.219C136.647 20.4797 136.709 20.797 136.709 21.171C136.709 21.6243 136.613 22.0153 136.42 22.344C136.228 22.6613 135.978 22.922 135.672 23.126C135.366 23.33 135.015 23.4773 134.618 23.568C134.233 23.6587 133.842 23.704 133.445 23.704C132.777 23.704 132.187 23.602 131.677 23.398C131.179 23.194 130.731 22.82 130.334 22.276L131.49 21.324C131.74 21.5733 132.017 21.7943 132.323 21.987C132.629 22.1797 133.003 22.276 133.445 22.276C133.638 22.276 133.831 22.259 134.023 22.225C134.227 22.1797 134.403 22.1173 134.55 22.038C134.709 21.9473 134.834 21.8397 134.924 21.715C135.026 21.579 135.077 21.426 135.077 21.256C135.077 21.0293 135.004 20.8423 134.856 20.695C134.72 20.5477 134.55 20.4343 134.346 20.355C134.154 20.2643 133.944 20.1963 133.717 20.151C133.502 20.0943 133.309 20.049 133.139 20.015C132.811 19.9357 132.499 19.845 132.204 19.743C131.91 19.641 131.649 19.505 131.422 19.335C131.196 19.165 131.014 18.9497 130.878 18.689C130.742 18.4283 130.674 18.1053 130.674 17.72C130.674 17.3007 130.759 16.938 130.929 16.632C131.111 16.3147 131.343 16.054 131.626 15.85C131.921 15.646 132.25 15.493 132.612 15.391C132.986 15.289 133.36 15.238 133.734 15.238C134.278 15.238 134.8 15.34 135.298 15.544C135.797 15.748 136.194 16.088 136.488 16.564L135.298 17.465ZM143.775 20.032C143.775 20.3833 143.849 20.7063 143.996 21.001C144.155 21.2843 144.359 21.528 144.608 21.732C144.858 21.936 145.147 22.0947 145.475 22.208C145.804 22.3213 146.144 22.378 146.495 22.378C146.971 22.378 147.385 22.2703 147.736 22.055C148.088 21.8283 148.411 21.5337 148.705 21.171L149.861 22.055C149.011 23.1543 147.821 23.704 146.291 23.704C145.657 23.704 145.079 23.5963 144.557 23.381C144.047 23.1657 143.611 22.871 143.248 22.497C142.897 22.1117 142.625 21.664 142.432 21.154C142.24 20.6327 142.143 20.0717 142.143 19.471C142.143 18.8703 142.245 18.315 142.449 17.805C142.665 17.2837 142.954 16.836 143.316 16.462C143.69 16.0767 144.132 15.7763 144.642 15.561C145.152 15.3457 145.708 15.238 146.308 15.238C147.022 15.238 147.623 15.3627 148.11 15.612C148.609 15.8613 149.017 16.19 149.334 16.598C149.652 16.9947 149.878 17.448 150.014 17.958C150.162 18.4567 150.235 18.9667 150.235 19.488V20.032H143.775ZM148.603 18.808C148.592 18.468 148.535 18.1563 148.433 17.873C148.343 17.5897 148.201 17.346 148.008 17.142C147.816 16.9267 147.572 16.7623 147.277 16.649C146.994 16.5243 146.66 16.462 146.274 16.462C145.9 16.462 145.555 16.5357 145.237 16.683C144.931 16.819 144.671 17.0003 144.455 17.227C144.24 17.4537 144.07 17.7087 143.945 17.992C143.832 18.264 143.775 18.536 143.775 18.808H148.603ZM160.498 14.065C160.158 13.623 159.727 13.283 159.206 13.045C158.684 12.807 158.146 12.688 157.591 12.688C156.911 12.688 156.293 12.8183 155.738 13.079C155.194 13.3283 154.723 13.674 154.327 14.116C153.941 14.558 153.641 15.0793 153.426 15.68C153.21 16.2693 153.103 16.904 153.103 17.584C153.103 18.2187 153.205 18.8193 153.409 19.386C153.613 19.9527 153.907 20.4513 154.293 20.882C154.678 21.3127 155.148 21.6527 155.704 21.902C156.259 22.1513 156.888 22.276 157.591 22.276C158.282 22.276 158.888 22.1343 159.41 21.851C159.931 21.5677 160.373 21.171 160.736 20.661L162.113 21.698C162.022 21.8227 161.863 22.004 161.637 22.242C161.41 22.4687 161.11 22.701 160.736 22.939C160.362 23.1657 159.908 23.364 159.376 23.534C158.854 23.7153 158.248 23.806 157.557 23.806C156.605 23.806 155.743 23.6247 154.973 23.262C154.213 22.8993 153.562 22.4233 153.018 21.834C152.485 21.2447 152.077 20.5817 151.794 19.845C151.51 19.097 151.369 18.3433 151.369 17.584C151.369 16.6547 151.522 15.799 151.828 15.017C152.134 14.2237 152.559 13.5437 153.103 12.977C153.658 12.399 154.321 11.9513 155.092 11.634C155.862 11.3167 156.712 11.158 157.642 11.158C158.435 11.158 159.211 11.311 159.971 11.617C160.741 11.923 161.37 12.3933 161.858 13.028L160.498 14.065ZM163.355 15.442H164.885V16.683H164.919C165.021 16.4677 165.157 16.275 165.327 16.105C165.497 15.9237 165.684 15.7707 165.888 15.646C166.104 15.5213 166.336 15.425 166.585 15.357C166.835 15.2777 167.084 15.238 167.333 15.238C167.583 15.238 167.809 15.272 168.013 15.34L167.945 16.989C167.821 16.955 167.696 16.9267 167.571 16.904C167.447 16.8813 167.322 16.87 167.197 16.87C166.449 16.87 165.877 17.0797 165.48 17.499C165.084 17.9183 164.885 18.57 164.885 19.454V23.5H163.355V15.442ZM170.165 20.032C170.165 20.3833 170.238 20.7063 170.386 21.001C170.544 21.2843 170.748 21.528 170.998 21.732C171.247 21.936 171.536 22.0947 171.865 22.208C172.193 22.3213 172.533 22.378 172.885 22.378C173.361 22.378 173.774 22.2703 174.126 22.055C174.477 21.8283 174.8 21.5337 175.095 21.171L176.251 22.055C175.401 23.1543 174.211 23.704 172.681 23.704C172.046 23.704 171.468 23.5963 170.947 23.381C170.437 23.1657 170 22.871 169.638 22.497C169.286 22.1117 169.014 21.664 168.822 21.154C168.629 20.6327 168.533 20.0717 168.533 19.471C168.533 18.8703 168.635 18.315 168.839 17.805C169.054 17.2837 169.343 16.836 169.706 16.462C170.08 16.0767 170.522 15.7763 171.032 15.561C171.542 15.3457 172.097 15.238 172.698 15.238C173.412 15.238 174.012 15.3627 174.5 15.612C174.998 15.8613 175.406 16.19 175.724 16.598C176.041 16.9947 176.268 17.448 176.404 17.958C176.551 18.4567 176.625 18.9667 176.625 19.488V20.032H170.165ZM174.993 18.808C174.981 18.468 174.925 18.1563 174.823 17.873C174.732 17.5897 174.59 17.346 174.398 17.142C174.205 16.9267 173.961 16.7623 173.667 16.649C173.383 16.5243 173.049 16.462 172.664 16.462C172.29 16.462 171.944 16.5357 171.627 16.683C171.321 16.819 171.06 17.0003 170.845 17.227C170.629 17.4537 170.459 17.7087 170.335 17.992C170.221 18.264 170.165 18.536 170.165 18.808H174.993ZM186.19 23.5H184.66V22.344H184.626C184.331 22.7747 183.923 23.109 183.402 23.347C182.892 23.585 182.365 23.704 181.821 23.704C181.198 23.704 180.631 23.5963 180.121 23.381C179.622 23.1657 179.192 22.8653 178.829 22.48C178.478 22.0947 178.206 21.647 178.013 21.137C177.82 20.627 177.724 20.0717 177.724 19.471C177.724 18.8703 177.82 18.315 178.013 17.805C178.206 17.2837 178.478 16.836 178.829 16.462C179.192 16.0767 179.622 15.7763 180.121 15.561C180.631 15.3457 181.198 15.238 181.821 15.238C182.399 15.238 182.943 15.3627 183.453 15.612C183.963 15.85 184.354 16.1787 184.626 16.598H184.66V10.648H186.19V23.5ZM182.008 22.276C182.416 22.276 182.784 22.208 183.113 22.072C183.442 21.9247 183.719 21.732 183.946 21.494C184.173 21.2447 184.348 20.95 184.473 20.61C184.598 20.2587 184.66 19.879 184.66 19.471C184.66 19.063 184.598 18.689 184.473 18.349C184.348 17.9977 184.173 17.703 183.946 17.465C183.719 17.2157 183.442 17.023 183.113 16.887C182.784 16.7397 182.416 16.666 182.008 16.666C181.6 16.666 181.232 16.7397 180.903 16.887C180.574 17.023 180.297 17.2157 180.07 17.465C179.843 17.703 179.668 17.9977 179.543 18.349C179.418 18.689 179.356 19.063 179.356 19.471C179.356 19.879 179.418 20.2587 179.543 20.61C179.668 20.95 179.843 21.2447 180.07 21.494C180.297 21.732 180.574 21.9247 180.903 22.072C181.232 22.208 181.6 22.276 182.008 22.276ZM188.286 15.442H189.816V23.5H188.286V15.442ZM187.929 12.552C187.929 12.246 188.037 11.9853 188.252 11.77C188.479 11.5433 188.745 11.43 189.051 11.43C189.357 11.43 189.618 11.5433 189.833 11.77C190.06 11.9853 190.173 12.246 190.173 12.552C190.173 12.858 190.06 13.1243 189.833 13.351C189.618 13.5663 189.357 13.674 189.051 13.674C188.745 13.674 188.479 13.5663 188.252 13.351C188.037 13.1243 187.929 12.858 187.929 12.552ZM196.229 16.768H194.036V20.423C194.036 20.6497 194.042 20.8763 194.053 21.103C194.065 21.3183 194.104 21.5167 194.172 21.698C194.252 21.868 194.365 22.0097 194.512 22.123C194.671 22.225 194.898 22.276 195.192 22.276C195.374 22.276 195.561 22.259 195.753 22.225C195.946 22.191 196.122 22.1287 196.28 22.038V23.432C196.099 23.534 195.861 23.602 195.566 23.636C195.283 23.6813 195.062 23.704 194.903 23.704C194.314 23.704 193.855 23.6247 193.526 23.466C193.209 23.296 192.971 23.0807 192.812 22.82C192.665 22.5593 192.574 22.2703 192.54 21.953C192.518 21.6243 192.506 21.2957 192.506 20.967V16.768H190.738V15.442H192.506V13.181H194.036V15.442H196.229V16.768ZM202.374 11.464H206.573C207.423 11.464 208.165 11.5603 208.8 11.753C209.446 11.9457 210.001 12.2063 210.466 12.535C210.942 12.8523 211.333 13.2207 211.639 13.64C211.956 14.0593 212.206 14.49 212.387 14.932C212.568 15.374 212.699 15.816 212.778 16.258C212.857 16.7 212.897 17.108 212.897 17.482C212.897 18.2527 212.755 19.0007 212.472 19.726C212.189 20.44 211.769 21.0803 211.214 21.647C210.659 22.2023 209.967 22.65 209.14 22.99C208.324 23.33 207.378 23.5 206.301 23.5H202.374V11.464ZM204.006 21.97H206.063C206.754 21.97 207.406 21.8793 208.018 21.698C208.641 21.5053 209.185 21.222 209.65 20.848C210.115 20.474 210.483 20.0093 210.755 19.454C211.027 18.8873 211.163 18.23 211.163 17.482C211.163 17.0967 211.101 16.649 210.976 16.139C210.851 15.6177 210.613 15.1247 210.262 14.66C209.922 14.1953 209.446 13.8043 208.834 13.487C208.222 13.1583 207.429 12.994 206.454 12.994H204.006V21.97ZM214.549 16.428C214.98 16.0313 215.479 15.7367 216.045 15.544C216.612 15.34 217.179 15.238 217.745 15.238C218.335 15.238 218.839 15.3117 219.258 15.459C219.689 15.6063 220.04 15.8047 220.312 16.054C220.584 16.3033 220.783 16.5923 220.907 16.921C221.043 17.2383 221.111 17.5727 221.111 17.924V22.038C221.111 22.3213 221.117 22.582 221.128 22.82C221.14 23.058 221.157 23.2847 221.179 23.5H219.819C219.785 23.092 219.768 22.684 219.768 22.276H219.734C219.394 22.7973 218.992 23.1657 218.527 23.381C218.063 23.5963 217.524 23.704 216.912 23.704C216.538 23.704 216.181 23.653 215.841 23.551C215.501 23.449 215.201 23.296 214.94 23.092C214.691 22.888 214.493 22.6387 214.345 22.344C214.198 22.038 214.124 21.6867 214.124 21.29C214.124 20.7687 214.238 20.3323 214.464 19.981C214.702 19.6297 215.02 19.3463 215.416 19.131C215.824 18.9043 216.295 18.7457 216.827 18.655C217.371 18.553 217.949 18.502 218.561 18.502H219.683V18.162C219.683 17.958 219.644 17.754 219.564 17.55C219.485 17.346 219.366 17.1647 219.207 17.006C219.049 16.836 218.85 16.7057 218.612 16.615C218.374 16.513 218.091 16.462 217.762 16.462C217.468 16.462 217.207 16.4903 216.98 16.547C216.765 16.6037 216.567 16.6773 216.385 16.768C216.204 16.8473 216.04 16.9437 215.892 17.057C215.745 17.1703 215.603 17.278 215.467 17.38L214.549 16.428ZM218.867 19.624C218.505 19.624 218.131 19.6467 217.745 19.692C217.371 19.726 217.026 19.7997 216.708 19.913C216.402 20.0263 216.147 20.185 215.943 20.389C215.751 20.593 215.654 20.8537 215.654 21.171C215.654 21.6357 215.807 21.97 216.113 22.174C216.431 22.378 216.856 22.48 217.388 22.48C217.808 22.48 218.165 22.412 218.459 22.276C218.754 22.1287 218.992 21.9417 219.173 21.715C219.355 21.4883 219.485 21.239 219.564 20.967C219.644 20.6837 219.683 20.406 219.683 20.134V19.624H218.867ZM227.309 16.768H225.116V20.423C225.116 20.6497 225.122 20.8763 225.133 21.103C225.144 21.3183 225.184 21.5167 225.252 21.698C225.331 21.868 225.445 22.0097 225.592 22.123C225.751 22.225 225.977 22.276 226.272 22.276C226.453 22.276 226.64 22.259 226.833 22.225C227.026 22.191 227.201 22.1287 227.36 22.038V23.432C227.179 23.534 226.941 23.602 226.646 23.636C226.363 23.6813 226.142 23.704 225.983 23.704C225.394 23.704 224.935 23.6247 224.606 23.466C224.289 23.296 224.051 23.0807 223.892 22.82C223.745 22.5593 223.654 22.2703 223.62 21.953C223.597 21.6243 223.586 21.2957 223.586 20.967V16.768H221.818V15.442H223.586V13.181H225.116V15.442H227.309V16.768ZM228.977 16.428C229.408 16.0313 229.906 15.7367 230.473 15.544C231.04 15.34 231.606 15.238 232.173 15.238C232.762 15.238 233.267 15.3117 233.686 15.459C234.117 15.6063 234.468 15.8047 234.74 16.054C235.012 16.3033 235.21 16.5923 235.335 16.921C235.471 17.2383 235.539 17.5727 235.539 17.924V22.038C235.539 22.3213 235.545 22.582 235.556 22.82C235.567 23.058 235.584 23.2847 235.607 23.5H234.247C234.213 23.092 234.196 22.684 234.196 22.276H234.162C233.822 22.7973 233.42 23.1657 232.955 23.381C232.49 23.5963 231.952 23.704 231.34 23.704C230.966 23.704 230.609 23.653 230.269 23.551C229.929 23.449 229.629 23.296 229.368 23.092C229.119 22.888 228.92 22.6387 228.773 22.344C228.626 22.038 228.552 21.6867 228.552 21.29C228.552 20.7687 228.665 20.3323 228.892 19.981C229.13 19.6297 229.447 19.3463 229.844 19.131C230.252 18.9043 230.722 18.7457 231.255 18.655C231.799 18.553 232.377 18.502 232.989 18.502H234.111V18.162C234.111 17.958 234.071 17.754 233.992 17.55C233.913 17.346 233.794 17.1647 233.635 17.006C233.476 16.836 233.278 16.7057 233.04 16.615C232.802 16.513 232.519 16.462 232.19 16.462C231.895 16.462 231.635 16.4903 231.408 16.547C231.193 16.6037 230.994 16.6773 230.813 16.768C230.632 16.8473 230.467 16.9437 230.32 17.057C230.173 17.1703 230.031 17.278 229.895 17.38L228.977 16.428ZM233.295 19.624C232.932 19.624 232.558 19.6467 232.173 19.692C231.799 19.726 231.453 19.7997 231.136 19.913C230.83 20.0263 230.575 20.185 230.371 20.389C230.178 20.593 230.082 20.8537 230.082 21.171C230.082 21.6357 230.235 21.97 230.541 22.174C230.858 22.378 231.283 22.48 231.816 22.48C232.235 22.48 232.592 22.412 232.887 22.276C233.182 22.1287 233.42 21.9417 233.601 21.715C233.782 21.4883 233.913 21.239 233.992 20.967C234.071 20.6837 234.111 20.406 234.111 20.134V19.624H233.295ZM245.975 11.464H247.454L252.605 23.5H250.701L249.494 20.525H243.765L242.575 23.5H240.671L245.975 11.464ZM248.899 19.097L246.655 13.572H246.621L244.343 19.097H248.899ZM253.831 11.464H258.064C258.834 11.464 259.469 11.5717 259.968 11.787C260.466 11.991 260.857 12.2573 261.141 12.586C261.435 12.9033 261.639 13.266 261.753 13.674C261.866 14.0707 261.923 14.456 261.923 14.83C261.923 15.204 261.866 15.595 261.753 16.003C261.639 16.3997 261.435 16.7623 261.141 17.091C260.857 17.4083 260.466 17.6747 259.968 17.89C259.469 18.094 258.834 18.196 258.064 18.196H255.463V23.5H253.831V11.464ZM255.463 16.768H257.605C257.922 16.768 258.234 16.7453 258.54 16.7C258.857 16.6433 259.135 16.547 259.373 16.411C259.622 16.275 259.82 16.0823 259.968 15.833C260.115 15.5723 260.189 15.238 260.189 14.83C260.189 14.422 260.115 14.0933 259.968 13.844C259.82 13.5833 259.622 13.385 259.373 13.249C259.135 13.113 258.857 13.0223 258.54 12.977C258.234 12.9203 257.922 12.892 257.605 12.892H255.463V16.768ZM263.568 11.464H265.2V23.5H263.568V11.464Z" fill="#122645"/>
</svg>
