<?xml version="1.0" encoding="utf-8"?>
<svg width="200" height="200" viewBox="0 0 200 200" fill="none" xmlns="http://www.w3.org/2000/svg">
  <path d="M 67.218 43.238 L 40.377 89.405 L 37.39 89.405 L 28.741 74.482 L 12.876 74.482 L 29.321 103.095 L 48.483 103.095 L 83.042 43.238 L 67.218 43.238 Z" fill="#FF9245" style=""/>
  <path d="M 64.153 103.093 L 57.792 92.113 L 51.393 103.093 L 64.153 103.093 Z" fill="#132645" style=""/>
  <path d="M 56.24 56.887 L 64.153 43.238 L 29.477 43.238 L 12.876 71.851 L 28.741 71.851 L 37.39 56.887 L 56.24 56.887 Z" fill="#132645" style=""/>
  <path d="M 167.855 87.01 C 167.855 84.742 167.053 83.009 165.448 81.809 C 163.842 80.582 160.952 79.3 156.777 77.967 C 152.603 76.607 149.299 75.274 146.863 73.965 C 140.228 70.392 136.911 65.577 136.911 59.522 C 136.911 56.374 137.793 53.575 139.56 51.12 C 141.352 48.639 143.908 46.706 147.226 45.318 C 150.57 43.932 154.316 43.238 158.464 43.238 C 162.638 43.238 166.357 43.998 169.622 45.518 C 172.885 47.012 175.414 49.133 177.206 51.88 C 179.026 54.627 179.937 57.749 179.937 61.242 L 167.895 61.242 C 167.895 58.576 167.053 56.508 165.367 55.04 C 163.681 53.548 161.313 52.801 158.263 52.801 C 155.319 52.801 153.031 53.427 151.399 54.682 C 149.768 55.909 148.952 57.535 148.952 59.563 C 148.952 61.455 149.902 63.043 151.801 64.324 C 153.727 65.604 156.55 66.804 160.269 67.924 C 167.12 69.979 172.11 72.527 175.24 75.567 C 178.371 78.608 179.937 82.394 179.937 86.929 C 179.937 91.971 178.024 95.932 174.197 98.813 C 170.37 101.666 165.219 103.093 158.745 103.093 C 154.25 103.093 150.155 102.281 146.462 100.654 C 142.771 99 139.947 96.746 137.994 93.892 C 136.068 91.037 135.105 87.729 135.105 83.969 L 147.185 83.969 C 147.185 90.397 151.039 93.611 158.745 93.611 C 161.607 93.611 163.842 93.037 165.448 91.892 C 167.053 90.717 167.855 89.09 167.855 87.01 Z" fill="#132645" style=""/>
  <path d="M 107.915 81.188 L 98.02 81.188 L 98.02 103.1 L 85.602 103.1 L 85.602 43.241 L 107.996 43.241 C 115.117 43.241 120.61 44.819 124.474 47.97 C 128.338 51.122 130.269 55.575 130.269 61.332 C 130.269 65.414 129.372 68.827 127.578 71.569 C 125.813 74.282 123.121 76.447 119.506 78.063 L 132.546 102.524 L 132.546 103.1 L 119.217 103.1 L 107.915 81.188 Z M 98.02 71.198 L 108.039 71.198 C 111.156 71.198 113.572 70.416 115.283 68.854 C 116.994 67.264 117.851 65.086 117.851 62.319 C 117.851 59.495 117.036 57.275 115.408 55.658 C 113.807 54.04 111.336 53.233 107.996 53.233 L 98.02 53.233 L 98.02 71.198 Z" fill="#132645" style=""/>
  <path d="M 182.106 99.498 C 182.106 98.852 182.264 98.251 182.579 97.697 C 182.897 97.144 183.335 96.709 183.892 96.392 C 184.454 96.072 185.06 95.911 185.708 95.911 C 186.358 95.911 186.963 96.072 187.519 96.392 C 188.081 96.709 188.52 97.144 188.835 97.697 C 189.151 98.251 189.31 98.852 189.31 99.498 C 189.31 100.151 189.151 100.756 188.829 101.313 C 188.508 101.866 188.068 102.301 187.509 102.619 C 186.956 102.936 186.355 103.093 185.708 103.093 C 185.057 103.093 184.451 102.934 183.892 102.614 C 183.339 102.294 182.902 101.856 182.584 101.302 C 182.266 100.749 182.106 100.148 182.106 99.498 Z M 188.687 99.498 C 188.687 98.967 188.56 98.474 188.306 98.019 C 188.053 97.562 187.694 97.196 187.232 96.925 C 186.768 96.649 186.26 96.512 185.708 96.512 C 185.172 96.512 184.671 96.643 184.207 96.905 C 183.747 97.167 183.386 97.53 183.122 97.99 C 182.858 98.452 182.726 98.955 182.726 99.498 C 182.726 100.041 182.856 100.544 183.117 101.004 C 183.381 101.467 183.742 101.83 184.202 102.1 C 184.666 102.365 185.168 102.499 185.708 102.499 C 186.25 102.499 186.753 102.362 187.216 102.091 C 187.682 101.819 188.044 101.451 188.301 100.991 C 188.559 100.531 188.687 100.033 188.687 99.498 Z M 184.979 99.862 L 184.979 101.48 L 184.212 101.48 L 184.212 97.399 L 185.637 97.399 C 186.148 97.399 186.551 97.511 186.846 97.731 C 187.14 97.949 187.287 98.259 187.287 98.662 C 187.287 99.021 187.096 99.3 186.714 99.498 C 186.92 99.596 187.064 99.737 187.145 99.916 C 187.23 100.092 187.272 100.311 187.272 100.573 C 187.272 100.835 187.277 101.021 187.287 101.13 C 187.301 101.24 187.323 101.329 187.357 101.404 L 187.357 101.48 L 186.572 101.48 C 186.528 101.372 186.506 101.062 186.506 100.549 C 186.506 100.305 186.45 100.131 186.338 100.026 C 186.226 99.918 186.04 99.862 185.779 99.862 L 184.979 99.862 Z M 184.979 99.219 L 185.668 99.219 C 185.918 99.219 186.123 99.168 186.282 99.066 C 186.445 98.963 186.526 98.83 186.526 98.662 C 186.526 98.439 186.465 98.279 186.343 98.188 C 186.225 98.092 186.008 98.041 185.693 98.039 L 184.979 98.039 L 184.979 99.219 Z" fill="#132645" style=""/>
  <path d="M 10.57 139.387 L 14.439 139.387 C 14.92 139.387 15.368 139.443 15.776 139.559 C 16.195 139.673 16.552 139.849 16.844 140.079 C 17.151 140.3 17.386 140.585 17.552 140.942 C 17.732 141.289 17.821 141.698 17.821 142.17 C 17.821 142.81 17.644 143.336 17.286 143.743 C 16.931 144.142 16.468 144.436 15.902 144.626 L 15.902 144.657 C 16.238 144.677 16.552 144.767 16.844 144.923 C 17.138 145.071 17.393 145.268 17.601 145.519 C 17.821 145.761 17.993 146.046 18.121 146.369 C 18.248 146.696 18.308 147.046 18.308 147.425 C 18.308 147.93 18.205 148.373 17.993 148.763 C 17.798 149.139 17.52 149.459 17.163 149.723 C 16.808 149.982 16.388 150.183 15.918 150.319 C 15.447 150.454 14.94 150.524 14.391 150.524 L 10.57 150.524 L 10.57 139.387 Z M 12.08 144.011 L 14.14 144.011 C 14.421 144.011 14.692 143.984 14.943 143.93 C 15.192 143.871 15.413 143.769 15.604 143.635 C 15.792 143.498 15.939 143.324 16.043 143.113 C 16.16 142.907 16.216 142.647 16.216 142.342 C 16.216 141.904 16.074 141.52 15.792 141.197 C 15.511 140.869 15.063 140.706 14.455 140.706 L 12.08 140.706 L 12.08 144.011 Z M 12.08 149.201 L 14.298 149.201 C 14.53 149.201 14.779 149.181 15.052 149.139 C 15.334 149.088 15.598 148.993 15.84 148.856 C 16.081 148.712 16.287 148.515 16.453 148.274 C 16.622 148.034 16.706 147.714 16.706 147.315 C 16.706 146.653 16.491 146.161 16.061 145.834 C 15.631 145.503 15.048 145.332 14.314 145.332 L 12.08 145.332 L 12.08 149.201 Z M 26.409 150.524 L 24.993 150.524 L 24.993 149.375 L 24.96 149.375 C 24.783 149.773 24.474 150.099 24.032 150.352 C 23.593 150.591 23.085 150.711 22.507 150.711 C 22.14 150.711 21.795 150.654 21.467 150.539 C 21.145 150.434 20.856 150.267 20.605 150.037 C 20.365 149.805 20.168 149.513 20.02 149.155 C 19.876 148.787 19.804 148.356 19.804 147.865 L 19.804 143.066 L 21.216 143.066 L 21.216 147.473 C 21.216 147.819 21.265 148.115 21.358 148.369 C 21.455 148.607 21.58 148.811 21.736 148.965 C 21.893 149.112 22.071 149.224 22.27 149.298 C 22.483 149.359 22.696 149.391 22.918 149.391 C 23.21 149.391 23.482 149.342 23.735 149.249 C 23.988 149.155 24.205 149.007 24.395 148.811 C 24.586 148.6 24.732 148.336 24.837 148.021 C 24.942 147.707 24.993 147.336 24.993 146.906 L 24.993 143.066 L 26.409 143.066 L 26.409 150.524 Z M 32.196 144.941 C 32.025 144.73 31.815 144.557 31.562 144.419 C 31.321 144.273 31.024 144.201 30.668 144.201 C 30.329 144.201 30.037 144.273 29.786 144.419 C 29.545 144.557 29.424 144.762 29.424 145.033 C 29.424 145.253 29.491 145.434 29.627 145.568 C 29.773 145.705 29.942 145.816 30.131 145.898 C 30.329 145.982 30.541 146.046 30.761 146.088 C 30.983 146.131 31.172 146.167 31.327 146.197 C 31.63 146.272 31.912 146.36 32.176 146.464 C 32.45 146.569 32.682 146.704 32.867 146.875 C 33.066 147.042 33.22 147.244 33.324 147.486 C 33.442 147.727 33.498 148.021 33.498 148.369 C 33.498 148.787 33.409 149.15 33.23 149.452 C 33.053 149.746 32.822 149.989 32.539 150.178 C 32.255 150.366 31.932 150.503 31.562 150.587 C 31.206 150.672 30.846 150.711 30.477 150.711 C 29.86 150.711 29.313 150.617 28.844 150.426 C 28.381 150.24 27.966 149.895 27.599 149.391 L 28.67 148.508 C 28.9 148.742 29.158 148.946 29.44 149.125 C 29.724 149.303 30.07 149.391 30.477 149.391 C 30.655 149.391 30.835 149.375 31.012 149.342 C 31.203 149.303 31.362 149.244 31.5 149.17 C 31.647 149.088 31.763 148.989 31.845 148.871 C 31.94 148.743 31.987 148.603 31.987 148.448 C 31.987 148.236 31.918 148.065 31.784 147.93 C 31.661 147.793 31.5 147.688 31.311 147.615 C 31.134 147.53 30.94 147.466 30.728 147.425 C 30.531 147.374 30.352 147.331 30.193 147.295 C 29.891 147.226 29.602 147.142 29.33 147.046 C 29.059 146.951 28.816 146.826 28.608 146.668 C 28.394 146.511 28.226 146.315 28.102 146.069 C 27.975 145.831 27.912 145.532 27.912 145.176 C 27.912 144.785 27.994 144.449 28.148 144.17 C 28.317 143.874 28.532 143.635 28.795 143.444 C 29.067 143.253 29.373 143.113 29.706 143.017 C 30.051 142.925 30.4 142.879 30.747 142.879 C 31.249 142.879 31.733 142.974 32.196 143.16 C 32.652 143.351 33.022 143.665 33.294 144.104 L 32.196 144.941 Z M 35.013 143.066 L 36.43 143.066 L 36.43 150.524 L 35.013 150.524 L 35.013 143.066 Z M 34.683 140.392 C 34.683 140.11 34.783 139.87 34.982 139.668 C 35.192 139.46 35.438 139.353 35.721 139.353 C 36.003 139.353 36.244 139.46 36.443 139.668 C 36.653 139.87 36.758 140.11 36.758 140.392 C 36.758 140.676 36.653 140.921 36.443 141.133 C 36.244 141.331 36.003 141.43 35.721 141.43 C 35.438 141.43 35.192 141.331 34.982 141.133 C 34.783 140.921 34.683 140.676 34.683 140.392 Z M 38.368 143.066 L 39.783 143.066 L 39.783 144.215 L 39.816 144.215 C 39.993 143.817 40.302 143.498 40.74 143.253 C 41.182 143.004 41.692 142.879 42.269 142.879 C 42.626 142.879 42.965 142.937 43.29 143.051 C 43.628 143.158 43.913 143.324 44.155 143.556 C 44.408 143.787 44.604 144.084 44.752 144.449 C 44.9 144.81 44.972 145.233 44.972 145.726 L 44.972 150.524 L 43.556 150.524 L 43.556 146.118 C 43.556 145.774 43.511 145.478 43.416 145.238 C 43.321 144.984 43.196 144.785 43.04 144.639 C 42.883 144.485 42.699 144.372 42.49 144.309 C 42.291 144.237 42.078 144.201 41.858 144.201 C 41.565 144.201 41.294 144.245 41.043 144.342 C 40.788 144.436 40.568 144.59 40.381 144.799 C 40.192 144.997 40.046 145.253 39.939 145.568 C 39.834 145.882 39.783 146.255 39.783 146.685 L 39.783 150.524 L 38.368 150.524 L 38.368 143.066 Z M 47.862 147.315 C 47.862 147.64 47.932 147.937 48.068 148.213 C 48.216 148.472 48.403 148.699 48.633 148.886 C 48.865 149.076 49.131 149.224 49.436 149.327 C 49.743 149.432 50.055 149.483 50.379 149.483 C 50.821 149.483 51.204 149.383 51.528 149.185 C 51.854 148.978 52.153 148.704 52.425 148.369 L 53.495 149.185 C 52.709 150.204 51.604 150.711 50.192 150.711 C 49.606 150.711 49.071 150.611 48.587 150.413 C 48.116 150.217 47.71 149.94 47.376 149.595 C 47.05 149.237 46.798 148.824 46.619 148.351 C 46.442 147.87 46.354 147.351 46.354 146.796 C 46.354 146.24 46.448 145.726 46.637 145.253 C 46.835 144.771 47.104 144.357 47.439 144.011 C 47.784 143.654 48.191 143.377 48.664 143.178 C 49.138 142.976 49.651 142.879 50.207 142.879 C 50.866 142.879 51.425 142.993 51.875 143.224 C 52.336 143.457 52.714 143.759 53.008 144.135 C 53.3 144.505 53.508 144.923 53.637 145.396 C 53.771 145.859 53.841 146.33 53.841 146.809 L 53.841 147.315 L 47.862 147.315 Z M 52.331 146.182 C 52.32 145.867 52.267 145.581 52.174 145.317 C 52.09 145.053 51.957 144.829 51.777 144.639 C 51.603 144.442 51.376 144.288 51.105 144.183 C 50.841 144.071 50.532 144.011 50.175 144.011 C 49.829 144.011 49.509 144.078 49.215 144.215 C 48.93 144.342 48.689 144.509 48.493 144.718 C 48.295 144.928 48.134 145.164 48.019 145.427 C 47.912 145.68 47.862 145.928 47.862 146.182 L 52.331 146.182 Z M 59.183 144.941 C 59.017 144.73 58.806 144.557 58.555 144.419 C 58.313 144.273 58.014 144.201 57.657 144.201 C 57.322 144.201 57.028 144.273 56.779 144.419 C 56.536 144.557 56.416 144.762 56.416 145.033 C 56.416 145.253 56.483 145.434 56.618 145.568 C 56.768 145.705 56.934 145.816 57.123 145.898 C 57.322 145.982 57.532 146.046 57.752 146.088 C 57.973 146.131 58.162 146.167 58.32 146.197 C 58.622 146.272 58.907 146.36 59.169 146.464 C 59.442 146.569 59.671 146.704 59.861 146.875 C 60.06 147.042 60.211 147.244 60.318 147.486 C 60.431 147.727 60.49 148.021 60.49 148.369 C 60.49 148.787 60.398 149.15 60.224 149.452 C 60.04 149.746 59.812 149.989 59.528 150.178 C 59.247 150.366 58.92 150.503 58.555 150.587 C 58.197 150.672 57.834 150.711 57.47 150.711 C 56.85 150.711 56.306 150.617 55.833 150.426 C 55.37 150.24 54.956 149.895 54.592 149.391 L 55.66 148.508 C 55.89 148.742 56.146 148.946 56.431 149.125 C 56.713 149.303 57.059 149.391 57.47 149.391 C 57.65 149.391 57.827 149.375 58.005 149.342 C 58.192 149.303 58.354 149.244 58.494 149.17 C 58.635 149.088 58.753 148.989 58.84 148.871 C 58.932 148.743 58.98 148.603 58.98 148.448 C 58.98 148.236 58.912 148.065 58.776 147.93 C 58.648 147.793 58.494 147.688 58.302 147.615 C 58.123 147.53 57.928 147.466 57.722 147.425 C 57.522 147.374 57.343 147.331 57.187 147.295 C 56.88 147.226 56.594 147.142 56.319 147.046 C 56.048 146.951 55.806 146.826 55.596 146.668 C 55.388 146.511 55.22 146.315 55.093 146.069 C 54.969 145.831 54.906 145.532 54.906 145.176 C 54.906 144.785 54.984 144.449 55.142 144.17 C 55.306 143.874 55.523 143.635 55.787 143.444 C 56.059 143.253 56.362 143.113 56.701 143.017 C 57.044 142.925 57.391 142.879 57.735 142.879 C 58.241 142.879 58.722 142.974 59.183 143.16 C 59.646 143.351 60.011 143.665 60.286 144.104 L 59.183 144.941 Z M 65.859 144.941 C 65.692 144.73 65.48 144.557 65.229 144.419 C 64.988 144.273 64.687 144.201 64.331 144.201 C 63.997 144.201 63.703 144.273 63.448 144.419 C 63.213 144.557 63.092 144.762 63.092 145.033 C 63.092 145.253 63.156 145.434 63.295 145.568 C 63.441 145.705 63.609 145.816 63.798 145.898 C 63.997 145.982 64.206 146.046 64.427 146.088 C 64.646 146.131 64.835 146.167 64.994 146.197 C 65.295 146.272 65.58 146.36 65.842 146.464 C 66.115 146.569 66.345 146.704 66.534 146.875 C 66.735 147.042 66.886 147.244 66.991 147.486 C 67.107 147.727 67.163 148.021 67.163 148.369 C 67.163 148.787 67.076 149.15 66.895 149.452 C 66.72 149.746 66.485 149.989 66.205 150.178 C 65.92 150.366 65.599 150.503 65.229 150.587 C 64.873 150.672 64.51 150.711 64.144 150.711 C 63.527 150.711 62.979 150.617 62.507 150.426 C 62.049 150.24 61.631 149.895 61.266 149.391 L 62.335 148.508 C 62.565 148.742 62.821 148.946 63.105 149.125 C 63.389 149.303 63.733 149.391 64.144 149.391 C 64.323 149.391 64.502 149.375 64.679 149.342 C 64.867 149.303 65.03 149.244 65.167 149.17 C 65.314 149.088 65.428 148.989 65.513 148.871 C 65.606 148.743 65.653 148.603 65.653 148.448 C 65.653 148.236 65.585 148.065 65.451 147.93 C 65.324 147.793 65.167 147.688 64.978 147.615 C 64.798 147.53 64.605 147.466 64.395 147.425 C 64.195 147.374 64.018 147.331 63.86 147.295 C 63.557 147.226 63.269 147.142 62.994 147.046 C 62.721 146.951 62.481 146.826 62.271 146.668 C 62.062 146.511 61.893 146.315 61.766 146.069 C 61.642 145.831 61.581 145.532 61.581 145.176 C 61.581 144.785 61.657 144.449 61.815 144.17 C 61.984 143.874 62.199 143.635 62.463 143.444 C 62.734 143.253 63.035 143.113 63.374 143.017 C 63.72 142.925 64.066 142.879 64.41 142.879 C 64.916 142.879 65.397 142.974 65.859 143.16 C 66.321 143.351 66.69 143.665 66.961 144.104 L 65.859 144.941 Z M 73.701 147.315 C 73.701 147.64 73.77 147.937 73.908 148.213 C 74.056 148.472 74.244 148.699 74.473 148.886 C 74.703 149.076 74.97 149.224 75.275 149.327 C 75.576 149.432 75.895 149.483 76.218 149.483 C 76.661 149.483 77.044 149.383 77.367 149.185 C 77.692 148.978 77.992 148.704 78.263 148.369 L 79.335 149.185 C 78.549 150.204 77.444 150.711 76.031 150.711 C 75.442 150.711 74.911 150.611 74.425 150.413 C 73.956 150.217 73.55 149.94 73.215 149.595 C 72.889 149.237 72.637 148.824 72.459 148.351 C 72.281 147.87 72.193 147.351 72.193 146.796 C 72.193 146.24 72.286 145.726 72.475 145.253 C 72.674 144.771 72.943 144.357 73.279 144.011 C 73.623 143.654 74.031 143.377 74.504 143.178 C 74.978 142.976 75.491 142.879 76.047 142.879 C 76.705 142.879 77.265 142.993 77.713 143.224 C 78.176 143.457 78.552 143.759 78.844 144.135 C 79.14 144.505 79.35 144.923 79.476 145.396 C 79.611 145.859 79.68 146.33 79.68 146.809 L 79.68 147.315 L 73.701 147.315 Z M 78.17 146.182 C 78.159 145.867 78.105 145.581 78.013 145.317 C 77.929 145.053 77.796 144.829 77.616 144.639 C 77.442 144.442 77.216 144.288 76.945 144.183 C 76.681 144.071 76.372 144.011 76.013 144.011 C 75.668 144.011 75.348 144.078 75.054 144.215 C 74.77 144.342 74.529 144.509 74.33 144.718 C 74.133 144.928 73.972 145.164 73.859 145.427 C 73.752 145.68 73.701 145.928 73.701 146.182 L 78.17 146.182 Z M 89.176 141.791 C 88.861 141.384 88.461 141.069 87.981 140.849 C 87.497 140.627 86.999 140.519 86.484 140.519 C 85.856 140.519 85.286 140.64 84.772 140.88 C 84.268 141.113 83.833 141.43 83.464 141.84 C 83.107 142.249 82.83 142.733 82.633 143.288 C 82.429 143.831 82.332 144.419 82.332 145.048 C 82.332 145.637 82.428 146.192 82.615 146.717 C 82.805 147.239 83.078 147.701 83.434 148.101 C 83.79 148.498 84.224 148.813 84.739 149.045 C 85.251 149.275 85.836 149.391 86.484 149.391 C 87.124 149.391 87.684 149.26 88.167 148.996 C 88.651 148.736 89.06 148.369 89.396 147.894 L 90.669 148.856 C 90.587 148.97 90.44 149.139 90.229 149.359 C 90.022 149.569 89.743 149.784 89.396 150.005 C 89.05 150.217 88.629 150.396 88.137 150.555 C 87.654 150.721 87.093 150.808 86.455 150.808 C 85.573 150.808 84.777 150.639 84.061 150.303 C 83.362 149.968 82.756 149.526 82.255 148.983 C 81.763 148.435 81.382 147.823 81.123 147.142 C 80.86 146.451 80.729 145.754 80.729 145.048 C 80.729 144.191 80.869 143.395 81.154 142.673 C 81.436 141.939 81.83 141.31 82.332 140.787 C 82.847 140.251 83.46 139.838 84.173 139.544 C 84.887 139.252 85.673 139.102 86.533 139.102 C 87.267 139.102 87.988 139.245 88.689 139.529 C 89.4 139.808 89.984 140.244 90.435 140.834 L 89.176 141.791 Z M 91.819 143.066 L 93.236 143.066 L 93.236 144.215 L 93.267 144.215 C 93.36 144.017 93.487 143.837 93.645 143.68 C 93.802 143.513 93.974 143.372 94.163 143.253 C 94.363 143.142 94.579 143.051 94.808 142.988 C 95.04 142.914 95.271 142.879 95.499 142.879 C 95.733 142.879 95.941 142.909 96.128 142.974 L 96.066 144.498 C 95.954 144.465 95.838 144.442 95.72 144.419 C 95.606 144.398 95.491 144.388 95.375 144.388 C 94.683 144.388 94.155 144.583 93.784 144.971 C 93.42 145.36 93.236 145.962 93.236 146.778 L 93.236 150.524 L 91.819 150.524 L 91.819 143.066 Z M 98.121 147.315 C 98.121 147.64 98.188 147.937 98.326 148.213 C 98.471 148.472 98.661 148.699 98.89 148.886 C 99.122 149.076 99.39 149.224 99.697 149.327 C 99.998 149.432 100.312 149.483 100.638 149.483 C 101.078 149.483 101.459 149.383 101.787 149.185 C 102.112 148.978 102.408 148.704 102.685 148.369 L 103.752 149.185 C 102.967 150.204 101.865 150.711 100.449 150.711 C 99.861 150.711 99.326 150.611 98.845 150.413 C 98.371 150.217 97.965 149.94 97.632 149.595 C 97.307 149.237 97.054 148.824 96.88 148.351 C 96.7 147.87 96.611 147.351 96.611 146.796 C 96.611 146.24 96.708 145.726 96.893 145.253 C 97.093 144.771 97.361 144.357 97.694 144.011 C 98.044 143.654 98.45 143.377 98.922 143.178 C 99.395 142.976 99.906 142.879 100.465 142.879 C 101.124 142.879 101.68 142.993 102.131 143.224 C 102.593 143.457 102.969 143.759 103.263 144.135 C 103.561 144.505 103.768 144.923 103.894 145.396 C 104.031 145.859 104.098 146.33 104.098 146.809 L 104.098 147.315 L 98.121 147.315 Z M 102.588 146.182 C 102.576 145.867 102.526 145.581 102.43 145.317 C 102.348 145.053 102.215 144.829 102.038 144.639 C 101.859 144.442 101.631 144.288 101.36 144.183 C 101.096 144.071 100.789 144.011 100.434 144.011 C 100.088 144.011 99.768 144.078 99.475 144.215 C 99.191 144.342 98.95 144.509 98.75 144.718 C 98.549 144.928 98.392 145.164 98.277 145.427 C 98.173 145.68 98.121 145.928 98.121 146.182 L 102.588 146.182 Z M 112.948 150.524 L 111.534 150.524 L 111.534 149.452 L 111.503 149.452 C 111.227 149.853 110.851 150.16 110.371 150.381 C 109.895 150.604 109.409 150.711 108.903 150.711 C 108.33 150.711 107.805 150.611 107.334 150.413 C 106.871 150.217 106.472 149.938 106.137 149.58 C 105.814 149.224 105.563 148.811 105.383 148.336 C 105.204 147.865 105.116 147.351 105.116 146.796 C 105.116 146.24 105.204 145.726 105.383 145.253 C 105.563 144.771 105.814 144.357 106.137 144.011 C 106.472 143.654 106.871 143.377 107.334 143.178 C 107.805 142.976 108.33 142.879 108.903 142.879 C 109.438 142.879 109.944 142.993 110.415 143.224 C 110.887 143.444 111.25 143.751 111.503 144.135 L 111.534 144.135 L 111.534 138.631 L 112.948 138.631 L 112.948 150.524 Z M 109.082 149.391 C 109.458 149.391 109.798 149.327 110.101 149.201 C 110.406 149.063 110.663 148.886 110.87 148.669 C 111.083 148.435 111.247 148.164 111.362 147.85 C 111.475 147.523 111.534 147.172 111.534 146.796 C 111.534 146.417 111.475 146.069 111.362 145.755 C 111.247 145.434 111.083 145.156 110.87 144.941 C 110.663 144.708 110.406 144.529 110.101 144.406 C 109.798 144.27 109.458 144.201 109.082 144.201 C 108.701 144.201 108.361 144.27 108.059 144.406 C 107.752 144.529 107.498 144.708 107.286 144.941 C 107.076 145.156 106.914 145.434 106.798 145.755 C 106.684 146.069 106.626 146.417 106.626 146.796 C 106.626 147.172 106.684 147.523 106.798 147.85 C 106.914 148.164 107.076 148.435 107.286 148.669 C 107.498 148.886 107.752 149.063 108.059 149.201 C 108.361 149.327 108.701 149.391 109.082 149.391 Z M 114.89 143.066 L 116.305 143.066 L 116.305 150.524 L 114.89 150.524 L 114.89 143.066 Z M 114.557 140.392 C 114.557 140.11 114.658 139.87 114.857 139.668 C 115.067 139.46 115.313 139.353 115.597 139.353 C 115.88 139.353 116.119 139.46 116.318 139.668 C 116.529 139.87 116.632 140.11 116.632 140.392 C 116.632 140.676 116.529 140.921 116.318 141.133 C 116.119 141.331 115.88 141.43 115.597 141.43 C 115.313 141.43 115.067 141.331 114.857 141.133 C 114.658 140.921 114.557 140.676 114.557 140.392 Z M 122.237 144.294 L 120.21 144.294 L 120.21 147.677 C 120.21 147.886 120.214 148.095 120.225 148.306 C 120.238 148.505 120.269 148.687 120.338 148.856 C 120.41 149.014 120.515 149.142 120.652 149.249 C 120.798 149.342 121.008 149.391 121.28 149.391 C 121.445 149.391 121.62 149.375 121.799 149.342 C 121.976 149.311 122.137 149.255 122.285 149.17 L 122.285 150.462 C 122.117 150.555 121.896 150.617 121.625 150.647 C 121.361 150.69 121.159 150.711 121.009 150.711 C 120.466 150.711 120.041 150.639 119.739 150.493 C 119.443 150.332 119.222 150.136 119.076 149.895 C 118.939 149.653 118.857 149.383 118.821 149.09 C 118.805 148.787 118.792 148.484 118.792 148.178 L 118.792 144.294 L 117.158 144.294 L 117.158 143.066 L 118.792 143.066 L 118.792 140.974 L 120.21 140.974 L 120.21 143.066 L 122.237 143.066 L 122.237 144.294 Z M 127.924 139.387 L 131.811 139.387 C 132.596 139.387 133.282 139.475 133.871 139.652 C 134.466 139.831 134.982 140.072 135.413 140.377 C 135.853 140.671 136.215 141.011 136.498 141.399 C 136.79 141.788 137.023 142.187 137.189 142.594 C 137.358 143.004 137.479 143.414 137.552 143.822 C 137.622 144.232 137.663 144.608 137.663 144.954 C 137.663 145.669 137.529 146.36 137.267 147.031 C 137.003 147.692 136.618 148.285 136.104 148.811 C 135.59 149.322 134.951 149.736 134.183 150.052 C 133.429 150.366 132.553 150.524 131.556 150.524 L 127.924 150.524 L 127.924 139.387 Z M 129.436 149.107 L 131.335 149.107 C 131.977 149.107 132.579 149.027 133.147 148.856 C 133.722 148.676 134.226 148.416 134.657 148.07 C 135.087 147.722 135.428 147.293 135.679 146.778 C 135.931 146.255 136.055 145.647 136.055 144.954 C 136.055 144.597 135.999 144.183 135.882 143.71 C 135.769 143.229 135.549 142.773 135.222 142.342 C 134.907 141.914 134.466 141.553 133.901 141.256 C 133.338 140.955 132.602 140.8 131.698 140.8 L 129.436 140.8 L 129.436 149.107 Z M 139.19 143.979 C 139.59 143.615 140.052 143.339 140.574 143.16 C 141.099 142.974 141.622 142.879 142.148 142.879 C 142.694 142.879 143.159 142.945 143.548 143.081 C 143.946 143.221 144.272 143.401 144.52 143.635 C 144.773 143.863 144.958 144.133 145.073 144.436 C 145.198 144.73 145.26 145.04 145.26 145.364 L 145.26 149.17 C 145.26 149.432 145.265 149.674 145.278 149.895 C 145.288 150.112 145.303 150.325 145.326 150.524 L 144.066 150.524 C 144.034 150.145 144.019 149.767 144.019 149.391 L 143.99 149.391 C 143.675 149.872 143.299 150.217 142.87 150.413 C 142.442 150.611 141.944 150.711 141.375 150.711 C 141.03 150.711 140.697 150.665 140.385 150.568 C 140.071 150.475 139.792 150.332 139.552 150.145 C 139.32 149.956 139.139 149.726 139 149.452 C 138.863 149.17 138.794 148.847 138.794 148.478 C 138.794 147.997 138.904 147.593 139.111 147.266 C 139.331 146.944 139.625 146.68 139.991 146.481 C 140.37 146.272 140.804 146.123 141.296 146.039 C 141.802 145.946 142.337 145.898 142.903 145.898 L 143.94 145.898 L 143.94 145.583 C 143.94 145.396 143.903 145.205 143.83 145.018 C 143.755 144.829 143.647 144.662 143.501 144.514 C 143.355 144.357 143.169 144.237 142.949 144.152 C 142.728 144.058 142.466 144.011 142.164 144.011 C 141.893 144.011 141.65 144.035 141.439 144.091 C 141.24 144.142 141.056 144.214 140.889 144.294 C 140.722 144.368 140.569 144.457 140.434 144.562 C 140.298 144.668 140.162 144.767 140.039 144.861 L 139.19 143.979 Z M 143.184 146.938 C 142.849 146.938 142.506 146.959 142.148 147 C 141.802 147.031 141.481 147.098 141.188 147.203 C 140.903 147.308 140.667 147.456 140.477 147.645 C 140.303 147.832 140.211 148.078 140.211 148.369 C 140.211 148.799 140.353 149.107 140.638 149.298 C 140.931 149.483 141.324 149.58 141.815 149.58 C 142.206 149.58 142.535 149.516 142.806 149.391 C 143.084 149.255 143.299 149.083 143.467 148.871 C 143.637 148.663 143.755 148.429 143.83 148.178 C 143.903 147.917 143.94 147.658 143.94 147.407 L 143.94 146.938 L 143.184 146.938 Z M 150.997 144.294 L 148.969 144.294 L 148.969 147.677 C 148.969 147.886 148.972 148.095 148.982 148.306 C 148.995 148.505 149.031 148.687 149.095 148.856 C 149.167 149.014 149.272 149.142 149.409 149.249 C 149.556 149.342 149.765 149.391 150.037 149.391 C 150.202 149.391 150.377 149.375 150.556 149.342 C 150.733 149.311 150.898 149.255 151.042 149.17 L 151.042 150.462 C 150.876 150.555 150.656 150.617 150.384 150.647 C 150.121 150.69 149.917 150.711 149.771 150.711 C 149.223 150.711 148.798 150.639 148.496 150.493 C 148.202 150.332 147.982 150.136 147.834 149.895 C 147.698 149.653 147.614 149.383 147.583 149.09 C 147.562 148.787 147.552 148.484 147.552 148.178 L 147.552 144.294 L 145.915 144.294 L 145.915 143.066 L 147.552 143.066 L 147.552 140.974 L 148.969 140.974 L 148.969 143.066 L 150.997 143.066 L 150.997 144.294 Z M 152.541 143.979 C 152.938 143.615 153.401 143.339 153.924 143.16 C 154.448 142.974 154.972 142.879 155.496 142.879 C 156.042 142.879 156.51 142.945 156.897 143.081 C 157.295 143.221 157.622 143.401 157.873 143.635 C 158.124 143.863 158.307 144.133 158.423 144.436 C 158.55 144.73 158.611 145.04 158.611 145.364 L 158.611 149.17 C 158.611 149.432 158.619 149.674 158.627 149.895 C 158.636 150.112 158.655 150.325 158.674 150.524 L 157.416 150.524 C 157.386 150.145 157.367 149.767 157.367 149.391 L 157.337 149.391 C 157.023 149.872 156.653 150.217 156.221 150.413 C 155.79 150.611 155.292 150.711 154.727 150.711 C 154.379 150.711 154.051 150.665 153.737 150.568 C 153.422 150.475 153.143 150.332 152.9 150.145 C 152.672 149.956 152.487 149.726 152.352 149.452 C 152.216 149.17 152.147 148.847 152.147 148.478 C 152.147 147.997 152.253 147.593 152.46 147.266 C 152.682 146.944 152.974 146.68 153.344 146.481 C 153.721 146.272 154.156 146.123 154.648 146.039 C 155.149 145.946 155.686 145.898 156.252 145.898 L 157.288 145.898 L 157.288 145.583 C 157.288 145.396 157.252 145.205 157.182 145.018 C 157.109 144.829 156.997 144.662 156.851 144.514 C 156.703 144.357 156.518 144.237 156.301 144.152 C 156.08 144.058 155.817 144.011 155.513 144.011 C 155.241 144.011 155 144.035 154.791 144.091 C 154.591 144.142 154.405 144.214 154.236 144.294 C 154.072 144.368 153.916 144.457 153.782 144.562 C 153.645 144.668 153.516 144.767 153.387 144.861 L 152.541 143.979 Z M 156.536 146.938 C 156.198 146.938 155.853 146.959 155.496 147 C 155.149 147.031 154.829 147.098 154.538 147.203 C 154.256 147.308 154.021 147.456 153.831 147.645 C 153.651 147.832 153.565 148.078 153.565 148.369 C 153.565 148.799 153.701 149.107 153.985 149.298 C 154.279 149.483 154.673 149.58 155.169 149.58 C 155.556 149.58 155.883 149.516 156.16 149.391 C 156.431 149.255 156.653 149.083 156.819 148.871 C 156.988 148.663 157.109 148.429 157.182 148.178 C 157.252 147.917 157.288 147.658 157.288 147.407 L 157.288 146.938 L 156.536 146.938 Z M 168.27 139.387 L 169.638 139.387 L 174.403 150.524 L 172.641 150.524 L 171.526 147.771 L 166.225 147.771 L 165.122 150.524 L 163.362 150.524 L 168.27 139.387 Z M 170.976 146.451 L 168.899 141.335 L 168.866 141.335 L 166.756 146.451 L 170.976 146.451 Z M 175.536 139.387 L 179.454 139.387 C 180.168 139.387 180.754 139.486 181.216 139.685 C 181.678 139.874 182.038 140.12 182.301 140.425 C 182.573 140.719 182.763 141.054 182.868 141.43 C 182.973 141.797 183.023 142.155 183.023 142.5 C 183.023 142.845 182.973 143.208 182.868 143.587 C 182.763 143.955 182.573 144.288 182.301 144.591 C 182.038 144.885 181.678 145.132 181.216 145.332 C 180.754 145.519 180.168 145.613 179.454 145.613 L 177.048 145.613 L 177.048 150.524 L 175.536 150.524 L 175.536 139.387 Z M 177.048 144.294 L 179.029 144.294 C 179.326 144.294 179.612 144.273 179.896 144.232 C 180.188 144.178 180.447 144.091 180.667 143.963 C 180.896 143.837 181.081 143.659 181.216 143.429 C 181.352 143.19 181.422 142.879 181.422 142.5 C 181.422 142.124 181.352 141.819 181.216 141.589 C 181.081 141.348 180.896 141.163 180.667 141.039 C 180.447 140.913 180.188 140.828 179.896 140.787 C 179.612 140.732 179.326 140.706 179.029 140.706 L 177.048 140.706 L 177.048 144.294 Z M 184.546 139.387 L 186.058 139.387 L 186.058 150.524 L 184.546 150.524 L 184.546 139.387 Z" fill="#122645" style=""/>
</svg>