<?xml version="1.0" encoding="utf-8"?>
<svg width="200" height="200" viewBox="0 0 200 200" fill="none" xmlns="http://www.w3.org/2000/svg">
  <path d="M 64.432 36.85 L 36.317 85.554 L 33.188 85.554 L 24.132 69.809 L 7.511 69.809 L 24.739 99.996 L 44.808 99.996 L 81.008 36.85 L 64.432 36.85 Z" fill="#FF9245" style=""/>
  <path d="M 61.225 99.996 L 54.56 88.408 L 47.857 99.996 L 61.225 99.996 Z" fill="#132645" style=""/>
  <path d="M 52.934 51.25 L 61.225 36.85 L 24.903 36.85 L 7.511 67.033 L 24.132 67.033 L 33.188 51.25 L 52.934 51.25 Z" fill="#132645" style=""/>
  <path d="M 169.845 83.025 C 169.845 80.633 169.006 78.806 167.323 77.538 C 165.645 76.244 162.615 74.895 158.243 73.485 C 153.874 72.053 150.409 70.646 147.858 69.267 C 140.909 65.494 137.432 60.415 137.432 54.028 C 137.432 50.708 138.357 47.753 140.207 45.163 C 142.088 42.547 144.764 40.507 148.236 39.043 C 151.742 37.58 155.667 36.85 160.012 36.85 C 164.381 36.85 168.277 37.651 171.696 39.256 C 175.116 40.831 177.765 43.07 179.643 45.967 C 181.547 48.865 182.502 52.158 182.502 55.843 L 169.891 55.843 C 169.891 53.027 169.006 50.848 167.242 49.3 C 165.477 47.724 162.995 46.936 159.799 46.936 C 156.719 46.936 154.321 47.597 152.611 48.923 C 150.903 50.215 150.047 51.931 150.047 54.07 C 150.047 56.068 151.041 57.744 153.029 59.094 C 155.046 60.445 158.006 61.71 161.902 62.891 C 169.076 65.058 174.305 67.748 177.582 70.953 C 180.863 74.164 182.502 78.158 182.502 82.941 C 182.502 88.259 180.496 92.439 176.49 95.476 C 172.483 98.49 167.086 99.996 160.305 99.996 C 155.593 99.996 151.306 99.137 147.437 97.418 C 143.571 95.673 140.615 93.296 138.568 90.287 C 136.551 87.274 135.541 83.785 135.541 79.82 L 148.196 79.82 C 148.196 86.602 152.231 89.993 160.305 89.993 C 163.304 89.993 165.645 89.385 167.323 88.174 C 169.006 86.938 169.845 85.222 169.845 83.025 Z" fill="#132645" style=""/>
  <path d="M 107.06 76.885 L 96.7 76.885 L 96.7 100 L 83.69 100 L 83.69 36.854 L 107.15 36.854 C 114.608 36.854 120.359 38.516 124.406 41.842 C 128.453 45.167 130.474 49.863 130.474 55.937 C 130.474 60.244 129.537 63.843 127.658 66.734 C 125.807 69.599 122.988 71.881 119.202 73.589 L 132.863 99.393 L 132.863 100 L 118.9 100 L 107.06 76.885 Z M 96.7 66.343 L 107.19 66.343 C 110.459 66.343 112.986 65.523 114.78 63.873 C 116.573 62.198 117.469 59.899 117.469 56.976 C 117.469 54 116.612 51.656 114.91 49.954 C 113.235 48.246 110.646 47.391 107.15 47.391 L 96.7 47.391 L 96.7 66.343 Z" fill="#132645" style=""/>
  <path d="M 184.775 96.198 C 184.775 95.518 184.938 94.885 185.268 94.302 C 185.602 93.715 186.063 93.26 186.646 92.923 C 187.233 92.587 187.87 92.418 188.549 92.418 C 189.229 92.418 189.862 92.587 190.446 92.923 C 191.036 93.26 191.492 93.715 191.822 94.302 C 192.156 94.885 192.32 95.518 192.32 96.198 C 192.32 96.888 192.152 97.528 191.818 98.115 C 191.48 98.698 191.019 99.158 190.435 99.491 C 189.854 99.827 189.225 99.996 188.549 99.996 C 187.866 99.996 187.229 99.823 186.646 99.487 C 186.063 99.15 185.606 98.69 185.276 98.104 C 184.942 97.52 184.775 96.885 184.775 96.198 Z M 191.667 96.198 C 191.667 95.641 191.537 95.12 191.268 94.639 C 191.003 94.158 190.628 93.772 190.143 93.485 C 189.658 93.194 189.125 93.05 188.549 93.05 C 187.987 93.05 187.461 93.19 186.976 93.465 C 186.495 93.745 186.117 94.125 185.84 94.61 C 185.562 95.094 185.424 95.628 185.424 96.198 C 185.424 96.773 185.562 97.302 185.831 97.791 C 186.107 98.276 186.487 98.661 186.968 98.945 C 187.457 99.224 187.983 99.368 188.549 99.368 C 189.116 99.368 189.641 99.224 190.127 98.936 C 190.616 98.65 190.995 98.264 191.264 97.775 C 191.532 97.29 191.667 96.764 191.667 96.198 Z M 187.783 96.584 L 187.783 98.292 L 186.98 98.292 L 186.98 93.986 L 188.473 93.986 C 189.01 93.986 189.429 94.105 189.74 94.335 C 190.045 94.564 190.2 94.893 190.2 95.319 C 190.2 95.698 190.001 95.989 189.601 96.198 C 189.817 96.305 189.967 96.454 190.053 96.642 C 190.139 96.826 190.184 97.057 190.184 97.336 C 190.184 97.611 190.192 97.807 190.2 97.922 C 190.216 98.037 190.241 98.132 190.273 98.21 L 190.273 98.292 L 189.45 98.292 C 189.406 98.177 189.381 97.848 189.381 97.31 C 189.381 97.053 189.324 96.868 189.206 96.756 C 189.091 96.642 188.895 96.584 188.622 96.584 L 187.783 96.584 Z M 187.783 95.907 L 188.504 95.907 C 188.769 95.907 188.981 95.854 189.149 95.743 C 189.32 95.636 189.406 95.496 189.406 95.319 C 189.406 95.082 189.34 94.913 189.214 94.819 C 189.088 94.716 188.864 94.663 188.534 94.659 L 187.783 94.659 L 187.783 95.907 Z" fill="#132645" style=""/>
  <path d="M 15.565 153.785 C 15.565 154.284 15.669 154.74 15.876 155.157 C 16.1 155.558 16.389 155.904 16.742 156.191 C 17.096 156.479 17.504 156.704 17.968 156.865 C 18.433 157.025 18.915 157.105 19.412 157.105 C 20.085 157.105 20.669 156.953 21.168 156.647 C 21.664 156.328 22.121 155.911 22.537 155.397 L 24.173 156.647 C 22.97 158.202 21.287 158.979 19.123 158.979 C 18.225 158.979 17.408 158.827 16.67 158.523 C 15.949 158.22 15.331 157.802 14.818 157.272 C 14.321 156.727 13.937 156.095 13.664 155.375 C 13.393 154.636 13.256 153.842 13.256 152.994 C 13.256 152.143 13.4 151.359 13.688 150.636 C 13.992 149.899 14.402 149.266 14.916 148.737 C 15.443 148.192 16.068 147.767 16.791 147.462 C 17.511 147.157 18.298 147.005 19.146 147.005 C 20.156 147.005 21.006 147.182 21.695 147.535 C 22.401 147.887 22.978 148.352 23.427 148.928 C 23.875 149.491 24.197 150.131 24.389 150.853 C 24.598 151.557 24.701 152.28 24.701 153.017 L 24.701 153.785 L 15.565 153.785 Z M 22.394 152.056 C 22.378 151.574 22.297 151.134 22.153 150.732 C 22.024 150.332 21.824 149.987 21.552 149.698 C 21.28 149.394 20.934 149.162 20.518 149.001 C 20.116 148.825 19.645 148.737 19.099 148.737 C 18.57 148.737 18.081 148.841 17.632 149.05 C 17.198 149.241 16.83 149.498 16.525 149.82 C 16.222 150.14 15.981 150.501 15.805 150.902 C 15.643 151.286 15.565 151.671 15.565 152.056 L 22.394 152.056 Z M 39.217 145.347 C 38.737 144.721 38.128 144.24 37.39 143.904 C 36.653 143.568 35.892 143.398 35.106 143.398 C 34.145 143.398 33.271 143.583 32.485 143.952 C 31.716 144.304 31.051 144.793 30.489 145.418 C 29.944 146.044 29.519 146.781 29.215 147.631 C 28.91 148.464 28.758 149.362 28.758 150.323 C 28.758 151.221 28.902 152.072 29.19 152.872 C 29.478 153.675 29.896 154.38 30.44 154.988 C 30.986 155.598 31.65 156.078 32.436 156.43 C 33.221 156.785 34.111 156.96 35.106 156.96 C 36.084 156.96 36.941 156.761 37.678 156.359 C 38.417 155.96 39.041 155.397 39.555 154.678 L 41.502 156.143 C 41.374 156.319 41.15 156.575 40.829 156.914 C 40.509 157.233 40.083 157.562 39.555 157.898 C 39.025 158.22 38.384 158.499 37.632 158.74 C 36.893 158.997 36.036 159.124 35.057 159.124 C 33.711 159.124 32.493 158.868 31.403 158.356 C 30.328 157.842 29.407 157.17 28.638 156.335 C 27.884 155.502 27.308 154.562 26.906 153.522 C 26.505 152.464 26.304 151.398 26.304 150.323 C 26.304 149.008 26.521 147.798 26.953 146.692 C 27.387 145.571 27.989 144.608 28.758 143.808 C 29.544 142.989 30.481 142.357 31.57 141.908 C 32.661 141.46 33.863 141.233 35.178 141.233 C 36.299 141.233 37.399 141.45 38.472 141.883 C 39.562 142.316 40.452 142.981 41.142 143.88 L 39.217 145.347 Z M 43.261 147.295 L 45.424 147.295 L 45.424 149.05 L 45.472 149.05 C 45.616 148.745 45.809 148.472 46.049 148.231 C 46.289 147.975 46.554 147.759 46.842 147.583 C 47.148 147.407 47.476 147.27 47.828 147.174 C 48.181 147.061 48.534 147.005 48.887 147.005 C 49.239 147.005 49.56 147.053 49.849 147.149 L 49.753 149.482 C 49.576 149.434 49.401 149.394 49.223 149.362 C 49.046 149.33 48.871 149.314 48.694 149.314 C 47.638 149.314 46.826 149.611 46.266 150.204 C 45.705 150.796 45.424 151.718 45.424 152.968 L 45.424 158.692 L 43.261 158.692 L 43.261 147.295 Z M 52.891 153.785 C 52.891 154.284 52.996 154.74 53.204 155.157 C 53.428 155.558 53.717 155.904 54.07 156.191 C 54.423 156.479 54.832 156.704 55.296 156.865 C 55.761 157.025 56.243 157.105 56.739 157.105 C 57.412 157.105 57.998 156.953 58.494 156.647 C 58.992 156.328 59.449 155.911 59.866 155.397 L 61.501 156.647 C 60.298 158.202 58.614 158.979 56.451 158.979 C 55.552 158.979 54.736 158.827 53.997 158.523 C 53.277 158.22 52.659 157.802 52.145 157.272 C 51.649 156.727 51.264 156.095 50.993 155.375 C 50.719 154.636 50.583 153.842 50.583 152.994 C 50.583 152.143 50.727 151.359 51.016 150.636 C 51.32 149.899 51.729 149.266 52.242 148.737 C 52.772 148.192 53.397 147.767 54.118 147.462 C 54.839 147.157 55.625 147.005 56.475 147.005 C 57.485 147.005 58.334 147.182 59.024 147.535 C 59.728 147.887 60.307 148.352 60.755 148.928 C 61.204 149.491 61.525 150.131 61.718 150.853 C 61.925 151.557 62.029 152.28 62.029 153.017 L 62.029 153.785 L 52.891 153.785 Z M 59.721 152.056 C 59.705 151.574 59.624 151.134 59.481 150.732 C 59.353 150.332 59.152 149.987 58.88 149.698 C 58.607 149.394 58.262 149.162 57.845 149.001 C 57.444 148.825 56.971 148.737 56.426 148.737 C 55.898 148.737 55.408 148.841 54.96 149.05 C 54.526 149.241 54.158 149.498 53.854 149.82 C 53.549 150.14 53.309 150.501 53.131 150.902 C 52.971 151.286 52.891 151.671 52.891 152.056 L 59.721 152.056 Z M 75.56 158.692 L 73.396 158.692 L 73.396 157.056 L 73.347 157.056 C 72.931 157.666 72.353 158.14 71.617 158.475 C 70.894 158.811 70.148 158.979 69.38 158.979 C 68.497 158.979 67.697 158.827 66.974 158.523 C 66.27 158.22 65.66 157.794 65.148 157.249 C 64.65 156.704 64.266 156.072 63.993 155.349 C 63.721 154.628 63.583 153.842 63.583 152.994 C 63.583 152.143 63.721 151.359 63.993 150.636 C 64.266 149.899 64.65 149.266 65.148 148.737 C 65.66 148.192 66.27 147.767 66.974 147.462 C 67.697 147.157 68.497 147.005 69.38 147.005 C 70.197 147.005 70.967 147.182 71.687 147.535 C 72.41 147.871 72.963 148.336 73.347 148.928 L 73.396 148.928 L 73.396 140.513 L 75.56 140.513 L 75.56 158.692 Z M 69.644 156.96 C 70.221 156.96 70.743 156.865 71.207 156.672 C 71.672 156.465 72.065 156.191 72.386 155.855 C 72.706 155.502 72.955 155.086 73.13 154.604 C 73.307 154.108 73.396 153.57 73.396 152.994 C 73.396 152.415 73.307 151.887 73.13 151.406 C 72.955 150.909 72.706 150.492 72.386 150.156 C 72.065 149.804 71.672 149.53 71.207 149.337 C 70.743 149.129 70.221 149.024 69.644 149.024 C 69.066 149.024 68.546 149.129 68.081 149.337 C 67.615 149.53 67.224 149.804 66.903 150.156 C 66.582 150.492 66.334 150.909 66.158 151.406 C 65.98 151.887 65.893 152.415 65.893 152.994 C 65.893 153.57 65.98 154.108 66.158 154.604 C 66.334 155.086 66.582 155.502 66.903 155.855 C 67.224 156.191 67.615 156.465 68.081 156.672 C 68.546 156.865 69.066 156.96 69.644 156.96 Z M 78.525 147.295 L 80.688 147.295 L 80.688 158.692 L 78.525 158.692 L 78.525 147.295 Z M 78.02 143.206 C 78.02 142.772 78.172 142.404 78.477 142.1 C 78.797 141.779 79.174 141.619 79.606 141.619 C 80.04 141.619 80.409 141.779 80.714 142.1 C 81.033 142.404 81.194 142.772 81.194 143.206 C 81.194 143.638 81.033 144.016 80.714 144.337 C 80.409 144.641 80.04 144.793 79.606 144.793 C 79.174 144.793 78.797 144.641 78.477 144.337 C 78.172 144.016 78.02 143.638 78.02 143.206 Z M 89.76 149.17 L 86.659 149.17 L 86.659 154.34 C 86.659 154.66 86.667 154.981 86.682 155.301 C 86.698 155.607 86.753 155.886 86.851 156.143 C 86.964 156.385 87.123 156.585 87.333 156.743 C 87.556 156.888 87.877 156.96 88.292 156.96 C 88.55 156.96 88.814 156.936 89.085 156.888 C 89.359 156.84 89.609 156.753 89.833 156.625 L 89.833 158.595 C 89.575 158.74 89.24 158.837 88.823 158.884 C 88.422 158.949 88.11 158.979 87.885 158.979 C 87.05 158.979 86.401 158.868 85.937 158.644 C 85.488 158.404 85.153 158.099 84.927 157.73 C 84.718 157.362 84.59 156.953 84.543 156.504 C 84.511 156.04 84.494 155.574 84.494 155.108 L 84.494 149.17 L 81.993 149.17 L 81.993 147.295 L 84.494 147.295 L 84.494 144.095 L 86.659 144.095 L 86.659 147.295 L 89.76 147.295 L 89.76 149.17 Z M 98.451 141.667 L 104.391 141.667 C 105.593 141.667 106.642 141.803 107.541 142.075 C 108.455 142.349 109.24 142.717 109.898 143.182 C 110.572 143.63 111.124 144.151 111.556 144.745 C 112.007 145.338 112.359 145.946 112.615 146.573 C 112.872 147.198 113.056 147.823 113.168 148.448 C 113.281 149.074 113.337 149.65 113.337 150.179 C 113.337 151.27 113.136 152.327 112.737 153.353 C 112.334 154.365 111.742 155.269 110.955 156.072 C 110.17 156.857 109.194 157.489 108.024 157.969 C 106.869 158.453 105.531 158.692 104.006 158.692 L 98.451 158.692 L 98.451 141.667 Z M 100.761 156.527 L 103.669 156.527 C 104.648 156.527 105.571 156.401 106.436 156.143 C 107.317 155.871 108.085 155.47 108.744 154.94 C 109.401 154.411 109.922 153.755 110.307 152.968 C 110.692 152.168 110.885 151.238 110.885 150.179 C 110.885 149.635 110.795 149.001 110.619 148.281 C 110.442 147.542 110.107 146.845 109.61 146.189 C 109.129 145.531 108.455 144.979 107.59 144.528 C 106.724 144.064 105.601 143.831 104.223 143.831 L 100.761 143.831 L 100.761 156.527 Z M 115.675 148.688 C 116.284 148.127 116.987 147.711 117.79 147.439 C 118.591 147.149 119.394 147.005 120.194 147.005 C 121.029 147.005 121.742 147.11 122.336 147.318 C 122.945 147.527 123.442 147.807 123.826 148.16 C 124.212 148.512 124.491 148.922 124.667 149.386 C 124.859 149.836 124.956 150.307 124.956 150.805 L 124.956 156.625 C 124.956 157.025 124.965 157.394 124.981 157.73 C 124.996 158.065 125.021 158.388 125.052 158.692 L 123.128 158.692 C 123.082 158.114 123.057 157.539 123.057 156.96 L 123.008 156.96 C 122.527 157.697 121.959 158.22 121.301 158.523 C 120.645 158.827 119.882 158.979 119.016 158.979 C 118.487 158.979 117.982 158.907 117.502 158.766 C 117.02 158.62 116.597 158.404 116.229 158.114 C 115.875 157.826 115.593 157.474 115.387 157.056 C 115.177 156.625 115.074 156.127 115.074 155.566 C 115.074 154.83 115.234 154.21 115.554 153.714 C 115.891 153.218 116.339 152.817 116.901 152.512 C 117.477 152.191 118.142 151.967 118.897 151.839 C 119.666 151.695 120.484 151.622 121.349 151.622 L 122.936 151.622 L 122.936 151.142 C 122.936 150.853 122.881 150.563 122.769 150.276 C 122.656 149.987 122.488 149.731 122.263 149.507 C 122.039 149.266 121.759 149.081 121.422 148.953 C 121.085 148.809 120.684 148.737 120.22 148.737 C 119.803 148.737 119.433 148.777 119.112 148.857 C 118.808 148.938 118.526 149.042 118.272 149.17 C 118.016 149.282 117.784 149.418 117.573 149.577 C 117.365 149.739 117.164 149.891 116.972 150.035 L 115.675 148.688 Z M 121.781 153.209 C 121.269 153.209 120.74 153.241 120.194 153.305 C 119.666 153.353 119.177 153.458 118.728 153.618 C 118.295 153.779 117.935 154.003 117.646 154.291 C 117.375 154.578 117.238 154.949 117.238 155.397 C 117.238 156.056 117.455 156.527 117.887 156.817 C 118.335 157.105 118.936 157.249 119.691 157.249 C 120.283 157.249 120.788 157.153 121.205 156.96 C 121.623 156.753 121.959 156.487 122.215 156.168 C 122.472 155.845 122.656 155.494 122.769 155.108 C 122.881 154.708 122.936 154.316 122.936 153.931 L 122.936 153.209 L 121.781 153.209 Z M 133.722 149.17 L 130.62 149.17 L 130.62 154.34 C 130.62 154.66 130.629 154.981 130.646 155.301 C 130.661 155.607 130.716 155.886 130.814 156.143 C 130.926 156.385 131.086 156.585 131.294 156.743 C 131.519 156.888 131.839 156.96 132.255 156.96 C 132.513 156.96 132.777 156.936 133.049 156.888 C 133.323 156.84 133.57 156.753 133.794 156.625 L 133.794 158.595 C 133.538 158.74 133.201 158.837 132.785 158.884 C 132.383 158.949 132.071 158.979 131.848 158.979 C 131.014 158.979 130.364 158.868 129.9 158.644 C 129.451 158.404 129.113 158.099 128.89 157.73 C 128.68 157.362 128.552 156.953 128.504 156.504 C 128.472 156.04 128.457 155.574 128.457 155.108 L 128.457 149.17 L 125.955 149.17 L 125.955 147.295 L 128.457 147.295 L 128.457 144.095 L 130.62 144.095 L 130.62 147.295 L 133.722 147.295 L 133.722 149.17 Z M 136.082 148.688 C 136.692 148.127 137.398 147.711 138.197 147.439 C 138.999 147.149 139.801 147.005 140.603 147.005 C 141.437 147.005 142.149 147.11 142.743 147.318 C 143.353 147.527 143.848 147.807 144.234 148.16 C 144.619 148.512 144.899 148.922 145.076 149.386 C 145.267 149.836 145.363 150.307 145.363 150.805 L 145.363 156.625 C 145.363 157.025 145.373 157.394 145.389 157.73 C 145.403 158.065 145.428 158.388 145.46 158.692 L 143.537 158.692 C 143.489 158.114 143.464 157.539 143.464 156.96 L 143.415 156.96 C 142.935 157.697 142.366 158.22 141.709 158.523 C 141.051 158.827 140.29 158.979 139.424 158.979 C 138.896 158.979 138.392 158.907 137.909 158.766 C 137.429 158.62 137.004 158.404 136.635 158.114 C 136.283 157.826 136.002 157.474 135.793 157.056 C 135.586 156.625 135.481 156.127 135.481 155.566 C 135.481 154.83 135.641 154.21 135.962 153.714 C 136.299 153.218 136.747 152.817 137.308 152.512 C 137.885 152.191 138.551 151.967 139.305 151.839 C 140.074 151.695 140.891 151.622 141.758 151.622 L 143.344 151.622 L 143.344 151.142 C 143.344 150.853 143.288 150.563 143.176 150.276 C 143.064 149.987 142.895 149.731 142.67 149.507 C 142.446 149.266 142.167 149.081 141.829 148.953 C 141.492 148.809 141.092 148.737 140.628 148.737 C 140.209 148.737 139.841 148.777 139.521 148.857 C 139.215 148.938 138.937 149.042 138.68 149.17 C 138.422 149.282 138.19 149.418 137.983 149.577 C 137.773 149.739 137.573 149.891 137.38 150.035 L 136.082 148.688 Z M 142.189 153.209 C 141.677 153.209 141.147 153.241 140.603 153.305 C 140.074 153.353 139.585 153.458 139.135 153.618 C 138.702 153.779 138.343 154.003 138.054 154.291 C 137.782 154.578 137.644 154.949 137.644 155.397 C 137.644 156.056 137.862 156.527 138.294 156.817 C 138.743 157.105 139.345 157.249 140.098 157.249 C 140.689 157.249 141.195 157.153 141.613 156.96 C 142.031 156.753 142.366 156.487 142.622 156.168 C 142.879 155.845 143.064 155.494 143.176 155.108 C 143.288 154.708 143.344 154.316 143.344 153.931 L 143.344 153.209 L 142.189 153.209 Z M 160.126 141.667 L 162.218 141.667 L 169.503 158.692 L 166.809 158.692 L 165.103 154.484 L 156.999 154.484 L 155.315 158.692 L 152.623 158.692 L 160.126 141.667 Z M 164.261 152.464 L 161.087 144.649 L 161.041 144.649 L 157.818 152.464 L 164.261 152.464 Z M 171.237 141.667 L 177.224 141.667 C 178.315 141.667 179.214 141.819 179.918 142.125 C 180.624 142.413 181.176 142.79 181.577 143.255 C 181.995 143.703 182.282 144.216 182.443 144.793 C 182.605 145.354 182.685 145.9 182.685 146.429 C 182.685 146.958 182.605 147.511 182.443 148.087 C 182.282 148.649 181.995 149.162 181.577 149.626 C 181.176 150.076 180.624 150.451 179.918 150.757 C 179.214 151.046 178.315 151.189 177.224 151.189 L 173.547 151.189 L 173.547 158.692 L 171.237 158.692 L 171.237 141.667 Z M 173.547 149.17 L 176.575 149.17 C 177.024 149.17 177.467 149.137 177.898 149.074 C 178.347 148.994 178.74 148.857 179.076 148.665 C 179.431 148.472 179.71 148.2 179.918 147.847 C 180.127 147.478 180.231 147.005 180.231 146.429 C 180.231 145.85 180.127 145.386 179.918 145.034 C 179.71 144.666 179.431 144.384 179.076 144.192 C 178.74 144 178.347 143.871 177.898 143.808 C 177.467 143.727 177.024 143.687 176.575 143.687 L 173.547 143.687 L 173.547 149.17 Z M 185.012 141.667 L 187.319 141.667 L 187.319 158.692 L 185.012 158.692 L 185.012 141.667 Z" fill="#122645" style=""/>
</svg>