<svg width="200" height="200" viewBox="0 0 200 200" fill="none" xmlns="http://www.w3.org/2000/svg">
<path d="M61.9836 67.0006L31.8618 118.674H28.5101L18.8032 101.969H1L19.4561 133.994H40.9593L79.7433 67.0006H61.9836Z" fill="#FF9245"/>
<path d="M58.5446 133.993L51.4059 121.703L44.2236 133.993H58.5446Z" fill="#132645"/>
<path d="M49.665 82.2774L58.5449 67.0006H19.6303L1 99.0257H18.8032L28.5101 82.2774H49.665Z" fill="#132645"/>
<path d="M174.922 115.991C174.922 113.454 174.021 111.513 172.219 110.17C170.418 108.796 167.175 107.363 162.49 105.87C157.806 104.348 154.098 102.855 151.365 101.392C143.918 97.3918 140.195 92.0031 140.195 85.2261C140.195 81.7033 141.186 78.5686 143.167 75.822C145.179 73.0455 148.047 70.8811 151.77 69.3286C155.524 67.7762 159.728 67 164.382 67C169.066 67 173.24 67.8509 176.904 69.5526C180.567 71.2244 183.405 73.5978 185.417 76.6728C187.459 79.7479 188.48 83.2408 188.48 87.1518H174.967C174.967 84.1663 174.021 81.8526 172.129 80.2106C170.238 78.5387 167.58 77.7028 164.157 77.7028C160.854 77.7028 158.286 78.4044 156.455 79.8076C154.623 81.1809 153.707 83.002 153.707 85.2709C153.707 87.3906 154.773 89.1669 156.905 90.5999C159.067 92.033 162.235 93.3764 166.409 94.6303C174.096 96.9291 179.696 99.7802 183.21 103.184C186.723 106.587 188.48 110.826 188.48 115.902C188.48 121.544 186.333 125.977 182.039 129.202C177.745 132.396 171.964 133.993 164.697 133.993C159.653 133.993 155.058 133.083 150.915 131.262C146.771 129.411 143.603 126.888 141.411 123.694C139.249 120.499 138.168 116.797 138.168 112.588H151.725C151.725 119.783 156.049 123.38 164.697 123.38C167.91 123.38 170.418 122.738 172.219 121.455C174.021 120.141 174.922 118.32 174.922 115.991Z" fill="#132645"/>
<path d="M107.655 109.475H96.5514V134H82.6143V67.0047H107.748C115.738 67.0047 121.902 68.7685 126.238 72.2962C130.574 75.8239 132.742 80.8087 132.742 87.2505C132.742 91.8212 131.735 95.6403 129.722 98.7078C127.74 101.745 124.72 104.168 120.663 105.978L135.297 133.356V134H120.338L107.655 109.475ZM96.5514 98.2937H107.794C111.294 98.2937 114.004 97.4194 115.924 95.6709C117.844 93.8918 118.804 91.4531 118.804 88.3548C118.804 85.1952 117.891 82.7105 116.063 80.9007C114.267 79.0908 111.495 78.1859 107.748 78.1859H96.5514V98.2937Z" fill="#132645"/>
<path d="M190.915 129.969C190.915 129.245 191.092 128.573 191.445 127.954C191.802 127.334 192.293 126.847 192.919 126.492C193.549 126.134 194.229 125.955 194.958 125.955C195.686 125.955 196.364 126.134 196.99 126.492C197.62 126.847 198.112 127.334 198.465 127.954C198.822 128.573 199 129.245 199 129.969C199 130.699 198.82 131.376 198.459 132C198.099 132.619 197.605 133.107 196.979 133.461C196.356 133.816 195.683 133.993 194.958 133.993C194.225 133.993 193.546 133.814 192.919 133.456C192.297 133.098 191.807 132.609 191.45 131.989C191.094 131.369 190.915 130.696 190.915 129.969ZM198.3 129.969C198.3 129.374 198.157 128.822 197.873 128.314C197.588 127.801 197.186 127.393 196.666 127.089C196.146 126.781 195.576 126.626 194.958 126.626C194.354 126.626 193.792 126.773 193.272 127.067C192.756 127.361 192.35 127.766 192.054 128.281C191.758 128.797 191.61 129.36 191.61 129.969C191.61 130.578 191.756 131.14 192.048 131.656C192.344 132.172 192.75 132.58 193.267 132.881C193.787 133.178 194.35 133.327 194.958 133.327C195.565 133.327 196.129 133.175 196.649 132.87C197.172 132.566 197.579 132.156 197.867 131.64C198.155 131.124 198.3 130.567 198.3 129.969ZM194.138 130.377V132.188H193.278V127.621H194.878C195.451 127.621 195.903 127.744 196.233 127.991C196.563 128.235 196.728 128.582 196.728 129.034C196.728 129.435 196.514 129.747 196.085 129.969C196.316 130.08 196.478 130.235 196.569 130.436C196.664 130.633 196.711 130.878 196.711 131.172C196.711 131.466 196.717 131.674 196.728 131.796C196.743 131.917 196.77 132.019 196.808 132.102V132.188H195.926C195.876 132.066 195.851 131.718 195.851 131.145C195.851 130.873 195.789 130.678 195.664 130.56C195.538 130.438 195.33 130.377 195.037 130.377H194.138ZM194.138 129.657H194.912C195.193 129.657 195.423 129.6 195.601 129.485C195.783 129.37 195.874 129.22 195.874 129.034C195.874 128.783 195.806 128.606 195.669 128.502C195.536 128.394 195.294 128.339 194.941 128.335H194.138V129.657Z" fill="#132645"/>
</svg>
